<?xml version="1.0" encoding="UTF-8" standalone="no"?>
<!DOCTYPE svg PUBLIC "-//W3C//DTD SVG 1.1//EN" "http://www.w3.org/Graphics/SVG/1.1/DTD/svg11.dtd">

<!-- Generated by graphviz version 2.43.0 (0)
 -->
<!-- Title: G Pages: 1 -->
<svg height="1316pt" viewbox="0.00 0.00 2492.00 1316.00" width="2492pt" xmlns="http://www.w3.org/2000/svg" xmlns:xlink="http://www.w3.org/1999/xlink">
<g class="graph" id="graph0" transform="scale(1 1) rotate(0) translate(4 1312)">
<title>G</title>
<polygon fill="white" points="-4,4 -4,-1312 2488,-1312 2488,4 -4,4" stroke="transparent"></polygon>
<!-- node1 -->
<g class="node" id="node1">
<title>node1</title>
<ellipse cx="117" cy="-966" fill="red" rx="27" ry="18" stroke="black"></ellipse>
</g>
<!-- node180 -->
<g class="node" id="node180">
<title>node180</title>
<ellipse cx="207" cy="-966" fill="yellow" rx="27" ry="18" stroke="black"></ellipse>
</g>
<!-- node1&#45;&gt;node180 -->
<g class="edge" id="edge1">
<title>node1-&gt;node180</title>
<path d="M144.4,-966C155.64,-966 168.72,-966 179.92,-966" fill="none" stroke="black"></path>
</g>
<!-- node2 -->
<g class="node" id="node2">
<title>node2</title>
<path d="M402,-1038C402,-1038 372,-1038 372,-1038 366,-1038 360,-1032 360,-1026 360,-1026 360,-1014 360,-1014 360,-1008 366,-1002 372,-1002 372,-1002 402,-1002 402,-1002 408,-1002 414,-1008 414,-1014 414,-1014 414,-1026 414,-1026 414,-1032 408,-1038 402,-1038" fill="none" stroke="black"></path>
</g>
<!-- node3 -->
<g class="node" id="node3">
<title>node3</title>
<path d="M582,-1065C582,-1065 552,-1065 552,-1065 546,-1065 540,-1059 540,-1053 540,-1053 540,-1041 540,-1041 540,-1035 546,-1029 552,-1029 552,-1029 582,-1029 582,-1029 588,-1029 594,-1035 594,-1041 594,-1041 594,-1053 594,-1053 594,-1059 588,-1065 582,-1065" fill="none" stroke="black"></path>
</g>
<!-- node4 -->
<g class="node" id="node4">
<title>node4</title>
<path d="M582,-1011C582,-1011 552,-1011 552,-1011 546,-1011 540,-1005 540,-999 540,-999 540,-987 540,-987 540,-981 546,-975 552,-975 552,-975 582,-975 582,-975 588,-975 594,-981 594,-987 594,-987 594,-999 594,-999 594,-1005 588,-1011 582,-1011" fill="none" stroke="black"></path>
</g>
<!-- node5 -->
<g class="node" id="node5">
<title>node5</title>
<ellipse cx="477" cy="-993" fill="green" rx="27" ry="18" stroke="black"></ellipse>
</g>
<!-- node5&#45;&gt;node3 -->
<g class="edge" id="edge2">
<title>node5-&gt;node3</title>
<path d="M497.53,-1004.98C509.99,-1012.63 526.28,-1022.63 539.85,-1030.95" fill="none" stroke="black"></path>
</g>
<!-- node5&#45;&gt;node4 -->
<g class="edge" id="edge3">
<title>node5-&gt;node4</title>
<path d="M504.4,-993C515.64,-993 528.72,-993 539.92,-993" fill="none" stroke="black"></path>
</g>
<!-- node6 -->
<g class="node" id="node6">
<title>node6</title>
<path d="M582,-957C582,-957 552,-957 552,-957 546,-957 540,-951 540,-945 540,-945 540,-933 540,-933 540,-927 546,-921 552,-921 552,-921 582,-921 582,-921 588,-921 594,-927 594,-933 594,-933 594,-945 594,-945 594,-951 588,-957 582,-957" fill="none" stroke="black"></path>
</g>
<!-- node7 -->
<g class="node" id="node7">
<title>node7</title>
<path d="M762,-984C762,-984 732,-984 732,-984 726,-984 720,-978 720,-972 720,-972 720,-960 720,-960 720,-954 726,-948 732,-948 732,-948 762,-948 762,-948 768,-948 774,-954 774,-960 774,-960 774,-972 774,-972 774,-978 768,-984 762,-984" fill="none" stroke="black"></path>
</g>
<!-- node8 -->
<g class="node" id="node8">
<title>node8</title>
<path d="M1212,-1234C1212,-1234 1182,-1234 1182,-1234 1176,-1234 1170,-1228 1170,-1222 1170,-1222 1170,-1210 1170,-1210 1170,-1204 1176,-1198 1182,-1198 1182,-1198 1212,-1198 1212,-1198 1218,-1198 1224,-1204 1224,-1210 1224,-1210 1224,-1222 1224,-1222 1224,-1228 1218,-1234 1212,-1234" fill="none" stroke="black"></path>
</g>
<!-- node9 -->
<g class="node" id="node9">
<title>node9</title>
<path d="M1302,-1234C1302,-1234 1272,-1234 1272,-1234 1266,-1234 1260,-1228 1260,-1222 1260,-1222 1260,-1210 1260,-1210 1260,-1204 1266,-1198 1272,-1198 1272,-1198 1302,-1198 1302,-1198 1308,-1198 1314,-1204 1314,-1210 1314,-1210 1314,-1222 1314,-1222 1314,-1228 1308,-1234 1302,-1234" fill="none" stroke="black"></path>
</g>
<!-- node10 -->
<g class="node" id="node10">
<title>node10</title>
<path d="M1482,-1308C1482,-1308 1452,-1308 1452,-1308 1446,-1308 1440,-1302 1440,-1296 1440,-1296 1440,-1284 1440,-1284 1440,-1278 1446,-1272 1452,-1272 1452,-1272 1482,-1272 1482,-1272 1488,-1272 1494,-1278 1494,-1284 1494,-1284 1494,-1296 1494,-1296 1494,-1302 1488,-1308 1482,-1308" fill="none" stroke="black"></path>
</g>
<!-- node11 -->
<g class="node" id="node11">
<title>node11</title>
<path d="M1482,-1254C1482,-1254 1452,-1254 1452,-1254 1446,-1254 1440,-1248 1440,-1242 1440,-1242 1440,-1230 1440,-1230 1440,-1224 1446,-1218 1452,-1218 1452,-1218 1482,-1218 1482,-1218 1488,-1218 1494,-1224 1494,-1230 1494,-1230 1494,-1242 1494,-1242 1494,-1248 1488,-1254 1482,-1254" fill="none" stroke="black"></path>
</g>
<!-- node12 -->
<g class="node" id="node12">
<title>node12</title>
<ellipse cx="1377" cy="-1236" fill="green" rx="27" ry="18" stroke="black"></ellipse>
</g>
<!-- node12&#45;&gt;node10 -->
<g class="edge" id="edge4">
<title>node12-&gt;node10</title>
<path d="M1397.53,-1247.98C1409.99,-1255.63 1426.28,-1265.63 1439.85,-1273.95" fill="none" stroke="black"></path>
</g>
<!-- node12&#45;&gt;node11 -->
<g class="edge" id="edge5">
<title>node12-&gt;node11</title>
<path d="M1404.4,-1236C1415.64,-1236 1428.72,-1236 1439.92,-1236" fill="none" stroke="black"></path>
</g>
<!-- node13 -->
<g class="node" id="node13">
<title>node13</title>
<path d="M1482,-1200C1482,-1200 1452,-1200 1452,-1200 1446,-1200 1440,-1194 1440,-1188 1440,-1188 1440,-1176 1440,-1176 1440,-1170 1446,-1164 1452,-1164 1452,-1164 1482,-1164 1482,-1164 1488,-1164 1494,-1170 1494,-1176 1494,-1176 1494,-1188 1494,-1188 1494,-1194 1488,-1200 1482,-1200" fill="none" stroke="black"></path>
</g>
<!-- node14 -->
<g class="node" id="node14">
<title>node14</title>
<path d="M1572,-1200C1572,-1200 1542,-1200 1542,-1200 1536,-1200 1530,-1194 1530,-1188 1530,-1188 1530,-1176 1530,-1176 1530,-1170 1536,-1164 1542,-1164 1542,-1164 1572,-1164 1572,-1164 1578,-1164 1584,-1170 1584,-1176 1584,-1176 1584,-1188 1584,-1188 1584,-1194 1578,-1200 1572,-1200" fill="none" stroke="black"></path>
</g>
<!-- node15 -->
<g class="node" id="node15">
<title>node15</title>
<path d="M1572,-1146C1572,-1146 1542,-1146 1542,-1146 1536,-1146 1530,-1140 1530,-1134 1530,-1134 1530,-1122 1530,-1122 1530,-1116 1536,-1110 1542,-1110 1542,-1110 1572,-1110 1572,-1110 1578,-1110 1584,-1116 1584,-1122 1584,-1122 1584,-1134 1584,-1134 1584,-1140 1578,-1146 1572,-1146" fill="none" stroke="black"></path>
</g>
<!-- node16 -->
<g class="node" id="node16">
<title>node16</title>
<ellipse cx="1467" cy="-1128" fill="green" rx="27" ry="18" stroke="black"></ellipse>
</g>
<!-- node16&#45;&gt;node14 -->
<g class="edge" id="edge6">
<title>node16-&gt;node14</title>
<path d="M1487.53,-1139.98C1499.99,-1147.63 1516.28,-1157.63 1529.85,-1165.95" fill="none" stroke="black"></path>
</g>
<!-- node16&#45;&gt;node15 -->
<g class="edge" id="edge7">
<title>node16-&gt;node15</title>
<path d="M1494.4,-1128C1505.64,-1128 1518.72,-1128 1529.92,-1128" fill="none" stroke="black"></path>
</g>
<!-- node17 -->
<g class="node" id="node17">
<title>node17</title>
<ellipse cx="1377" cy="-1162" fill="yellow" rx="27" ry="18" stroke="black"></ellipse>
</g>
<!-- node17&#45;&gt;node13 -->
<g class="edge" id="edge8">
<title>node17-&gt;node13</title>
<path d="M1402.98,-1167.68C1414.47,-1170.29 1428.09,-1173.38 1439.73,-1176.03" fill="none" stroke="black"></path>
</g>
<!-- node17&#45;&gt;node16 -->
<g class="edge" id="edge9">
<title>node17-&gt;node16</title>
<path d="M1400.66,-1153.24C1413.7,-1148.21 1430.03,-1141.9 1443.11,-1136.84" fill="none" stroke="black"></path>
</g>
<!-- node18 -->
<g class="node" id="node18">
<title>node18</title>
<ellipse cx="1287" cy="-1162" fill="yellow" rx="27" ry="18" stroke="black"></ellipse>
</g>
<!-- node18&#45;&gt;node12 -->
<g class="edge" id="edge10">
<title>node18-&gt;node12</title>
<path d="M1304.55,-1175.92C1320.29,-1189.15 1343.81,-1208.93 1359.52,-1222.14" fill="none" stroke="black"></path>
</g>
<!-- node18&#45;&gt;node17 -->
<g class="edge" id="edge11">
<title>node18-&gt;node17</title>
<path d="M1314.4,-1162C1325.64,-1162 1338.72,-1162 1349.92,-1162" fill="none" stroke="black"></path>
</g>
<!-- node19 -->
<g class="node" id="node19">
<title>node19</title>
<ellipse cx="1197" cy="-1162" fill="yellow" rx="27" ry="18" stroke="black"></ellipse>
</g>
<!-- node19&#45;&gt;node9 -->
<g class="edge" id="edge12">
<title>node19-&gt;node9</title>
<path d="M1217.53,-1173.98C1229.99,-1181.63 1246.28,-1191.63 1259.85,-1199.95" fill="none" stroke="black"></path>
</g>
<!-- node19&#45;&gt;node18 -->
<g class="edge" id="edge13">
<title>node19-&gt;node18</title>
<path d="M1224.4,-1162C1235.64,-1162 1248.72,-1162 1259.92,-1162" fill="none" stroke="black"></path>
</g>
<!-- node20 -->
<g class="node" id="node20">
<title>node20</title>
<ellipse cx="1107" cy="-1162" fill="yellow" rx="27" ry="18" stroke="black"></ellipse>
</g>
<!-- node20&#45;&gt;node8 -->
<g class="edge" id="edge14">
<title>node20-&gt;node8</title>
<path d="M1127.53,-1173.98C1139.99,-1181.63 1156.28,-1191.63 1169.85,-1199.95" fill="none" stroke="black"></path>
</g>
<!-- node20&#45;&gt;node19 -->
<g class="edge" id="edge15">
<title>node20-&gt;node19</title>
<path d="M1134.4,-1162C1145.64,-1162 1158.72,-1162 1169.92,-1162" fill="none" stroke="black"></path>
</g>
<!-- node21 -->
<g class="node" id="node21">
<title>node21</title>
<path d="M1122,-1116C1122,-1116 1092,-1116 1092,-1116 1086,-1116 1080,-1110 1080,-1104 1080,-1104 1080,-1092 1080,-1092 1080,-1086 1086,-1080 1092,-1080 1092,-1080 1122,-1080 1122,-1080 1128,-1080 1134,-1086 1134,-1092 1134,-1092 1134,-1104 1134,-1104 1134,-1110 1128,-1116 1122,-1116" fill="none" stroke="black"></path>
</g>
<!-- node22 -->
<g class="node" id="node22">
<title>node22</title>
<ellipse cx="1017" cy="-1098" fill="green" rx="27" ry="18" stroke="black"></ellipse>
</g>
<!-- node22&#45;&gt;node20 -->
<g class="edge" id="edge16">
<title>node22-&gt;node20</title>
<path d="M1035.81,-1110.95C1051.08,-1122.06 1072.96,-1137.97 1088.22,-1149.07" fill="none" stroke="black"></path>
</g>
<!-- node22&#45;&gt;node21 -->
<g class="edge" id="edge17">
<title>node22-&gt;node21</title>
<path d="M1044.4,-1098C1055.64,-1098 1068.72,-1098 1079.92,-1098" fill="none" stroke="black"></path>
</g>
<!-- node23 -->
<g class="node" id="node23">
<title>node23</title>
<path d="M1122,-1052C1122,-1052 1092,-1052 1092,-1052 1086,-1052 1080,-1046 1080,-1040 1080,-1040 1080,-1028 1080,-1028 1080,-1022 1086,-1016 1092,-1016 1092,-1016 1122,-1016 1122,-1016 1128,-1016 1134,-1022 1134,-1028 1134,-1028 1134,-1040 1134,-1040 1134,-1046 1128,-1052 1122,-1052" fill="none" stroke="black"></path>
</g>
<!-- node24 -->
<g class="node" id="node24">
<title>node24</title>
<path d="M1302,-1041C1302,-1041 1272,-1041 1272,-1041 1266,-1041 1260,-1035 1260,-1029 1260,-1029 1260,-1017 1260,-1017 1260,-1011 1266,-1005 1272,-1005 1272,-1005 1302,-1005 1302,-1005 1308,-1005 1314,-1011 1314,-1017 1314,-1017 1314,-1029 1314,-1029 1314,-1035 1308,-1041 1302,-1041" fill="none" stroke="black"></path>
</g>
<!-- node25 -->
<g class="node" id="node25">
<title>node25</title>
<path d="M1752,-1203C1752,-1203 1722,-1203 1722,-1203 1716,-1203 1710,-1197 1710,-1191 1710,-1191 1710,-1179 1710,-1179 1710,-1173 1716,-1167 1722,-1167 1722,-1167 1752,-1167 1752,-1167 1758,-1167 1764,-1173 1764,-1179 1764,-1179 1764,-1191 1764,-1191 1764,-1197 1758,-1203 1752,-1203" fill="none" stroke="black"></path>
</g>
<!-- node26 -->
<g class="node" id="node26">
<title>node26</title>
<path d="M1842,-1203C1842,-1203 1812,-1203 1812,-1203 1806,-1203 1800,-1197 1800,-1191 1800,-1191 1800,-1179 1800,-1179 1800,-1173 1806,-1167 1812,-1167 1812,-1167 1842,-1167 1842,-1167 1848,-1167 1854,-1173 1854,-1179 1854,-1179 1854,-1191 1854,-1191 1854,-1197 1848,-1203 1842,-1203" fill="none" stroke="black"></path>
</g>
<!-- node27 -->
<g class="node" id="node27">
<title>node27</title>
<path d="M2022,-1264C2022,-1264 1992,-1264 1992,-1264 1986,-1264 1980,-1258 1980,-1252 1980,-1252 1980,-1240 1980,-1240 1980,-1234 1986,-1228 1992,-1228 1992,-1228 2022,-1228 2022,-1228 2028,-1228 2034,-1234 2034,-1240 2034,-1240 2034,-1252 2034,-1252 2034,-1258 2028,-1264 2022,-1264" fill="none" stroke="black"></path>
</g>
<!-- node28 -->
<g class="node" id="node28">
<title>node28</title>
<path d="M2022,-1210C2022,-1210 1992,-1210 1992,-1210 1986,-1210 1980,-1204 1980,-1198 1980,-1198 1980,-1186 1980,-1186 1980,-1180 1986,-1174 1992,-1174 1992,-1174 2022,-1174 2022,-1174 2028,-1174 2034,-1180 2034,-1186 2034,-1186 2034,-1198 2034,-1198 2034,-1204 2028,-1210 2022,-1210" fill="none" stroke="black"></path>
</g>
<!-- node29 -->
<g class="node" id="node29">
<title>node29</title>
<ellipse cx="1917" cy="-1192" fill="green" rx="27" ry="18" stroke="black"></ellipse>
</g>
<!-- node29&#45;&gt;node27 -->
<g class="edge" id="edge18">
<title>node29-&gt;node27</title>
<path d="M1937.53,-1203.98C1949.99,-1211.63 1966.28,-1221.63 1979.85,-1229.95" fill="none" stroke="black"></path>
</g>
<!-- node29&#45;&gt;node28 -->
<g class="edge" id="edge19">
<title>node29-&gt;node28</title>
<path d="M1944.4,-1192C1955.64,-1192 1968.72,-1192 1979.92,-1192" fill="none" stroke="black"></path>
</g>
<!-- node30 -->
<g class="node" id="node30">
<title>node30</title>
<path d="M2022,-1156C2022,-1156 1992,-1156 1992,-1156 1986,-1156 1980,-1150 1980,-1144 1980,-1144 1980,-1132 1980,-1132 1980,-1126 1986,-1120 1992,-1120 1992,-1120 2022,-1120 2022,-1120 2028,-1120 2034,-1126 2034,-1132 2034,-1132 2034,-1144 2034,-1144 2034,-1150 2028,-1156 2022,-1156" fill="none" stroke="black"></path>
</g>
<!-- node31 -->
<g class="node" id="node31">
<title>node31</title>
<path d="M2112,-1129C2112,-1129 2082,-1129 2082,-1129 2076,-1129 2070,-1123 2070,-1117 2070,-1117 2070,-1105 2070,-1105 2070,-1099 2076,-1093 2082,-1093 2082,-1093 2112,-1093 2112,-1093 2118,-1093 2124,-1099 2124,-1105 2124,-1105 2124,-1117 2124,-1117 2124,-1123 2118,-1129 2112,-1129" fill="none" stroke="black"></path>
</g>
<!-- node32 -->
<g class="node" id="node32">
<title>node32</title>
<path d="M2112,-1075C2112,-1075 2082,-1075 2082,-1075 2076,-1075 2070,-1069 2070,-1063 2070,-1063 2070,-1051 2070,-1051 2070,-1045 2076,-1039 2082,-1039 2082,-1039 2112,-1039 2112,-1039 2118,-1039 2124,-1045 2124,-1051 2124,-1051 2124,-1063 2124,-1063 2124,-1069 2118,-1075 2112,-1075" fill="none" stroke="black"></path>
</g>
<!-- node33 -->
<g class="node" id="node33">
<title>node33</title>
<ellipse cx="2007" cy="-1084" fill="green" rx="27" ry="18" stroke="black"></ellipse>
</g>
<!-- node33&#45;&gt;node31 -->
<g class="edge" id="edge20">
<title>node33-&gt;node31</title>
<path d="M2032.05,-1091.38C2043.75,-1094.97 2057.85,-1099.29 2069.82,-1102.97" fill="none" stroke="black"></path>
</g>
<!-- node33&#45;&gt;node32 -->
<g class="edge" id="edge21">
<title>node33-&gt;node32</title>
<path d="M2032.05,-1076.62C2043.75,-1073.03 2057.85,-1068.71 2069.82,-1065.03" fill="none" stroke="black"></path>
</g>
<!-- node34 -->
<g class="node" id="node34">
<title>node34</title>
<ellipse cx="1917" cy="-1131" fill="yellow" rx="27" ry="18" stroke="black"></ellipse>
</g>
<!-- node34&#45;&gt;node30 -->
<g class="edge" id="edge22">
<title>node34-&gt;node30</title>
<path d="M1943.93,-1133.06C1955.28,-1133.97 1968.58,-1135.02 1979.95,-1135.93" fill="none" stroke="black"></path>
</g>
<!-- node34&#45;&gt;node33 -->
<g class="edge" id="edge23">
<title>node34-&gt;node33</title>
<path d="M1938.85,-1119.86C1952.88,-1112.37 1971.3,-1102.53 1985.29,-1095.06" fill="none" stroke="black"></path>
</g>
<!-- node35 -->
<g class="node" id="node35">
<title>node35</title>
<ellipse cx="1827" cy="-1131" fill="yellow" rx="27" ry="18" stroke="black"></ellipse>
</g>
<!-- node35&#45;&gt;node29 -->
<g class="edge" id="edge24">
<title>node35-&gt;node29</title>
<path d="M1846.23,-1143.64C1861.24,-1154.04 1882.41,-1168.72 1897.49,-1179.17" fill="none" stroke="black"></path>
</g>
<!-- node35&#45;&gt;node34 -->
<g class="edge" id="edge25">
<title>node35-&gt;node34</title>
<path d="M1854.4,-1131C1865.64,-1131 1878.72,-1131 1889.92,-1131" fill="none" stroke="black"></path>
</g>
<!-- node36 -->
<g class="node" id="node36">
<title>node36</title>
<ellipse cx="1737" cy="-1131" fill="yellow" rx="27" ry="18" stroke="black"></ellipse>
</g>
<!-- node36&#45;&gt;node26 -->
<g class="edge" id="edge26">
<title>node36-&gt;node26</title>
<path d="M1757.53,-1142.98C1769.99,-1150.63 1786.28,-1160.63 1799.85,-1168.95" fill="none" stroke="black"></path>
</g>
<!-- node36&#45;&gt;node35 -->
<g class="edge" id="edge27">
<title>node36-&gt;node35</title>
<path d="M1764.4,-1131C1775.64,-1131 1788.72,-1131 1799.92,-1131" fill="none" stroke="black"></path>
</g>
<!-- node37 -->
<g class="node" id="node37">
<title>node37</title>
<ellipse cx="1647" cy="-1131" fill="yellow" rx="27" ry="18" stroke="black"></ellipse>
</g>
<!-- node37&#45;&gt;node25 -->
<g class="edge" id="edge28">
<title>node37-&gt;node25</title>
<path d="M1667.53,-1142.98C1679.99,-1150.63 1696.28,-1160.63 1709.85,-1168.95" fill="none" stroke="black"></path>
</g>
<!-- node37&#45;&gt;node36 -->
<g class="edge" id="edge29">
<title>node37-&gt;node36</title>
<path d="M1674.4,-1131C1685.64,-1131 1698.72,-1131 1709.92,-1131" fill="none" stroke="black"></path>
</g>
<!-- node38 -->
<g class="node" id="node38">
<title>node38</title>
<path d="M1662,-1092C1662,-1092 1632,-1092 1632,-1092 1626,-1092 1620,-1086 1620,-1080 1620,-1080 1620,-1068 1620,-1068 1620,-1062 1626,-1056 1632,-1056 1632,-1056 1662,-1056 1662,-1056 1668,-1056 1674,-1062 1674,-1068 1674,-1068 1674,-1080 1674,-1080 1674,-1086 1668,-1092 1662,-1092" fill="none" stroke="black"></path>
</g>
<!-- node39 -->
<g class="node" id="node39">
<title>node39</title>
<ellipse cx="1557" cy="-1074" fill="green" rx="27" ry="18" stroke="black"></ellipse>
</g>
<!-- node39&#45;&gt;node37 -->
<g class="edge" id="edge30">
<title>node39-&gt;node37</title>
<path d="M1577.09,-1086.37C1591.86,-1095.93 1612.19,-1109.1 1626.94,-1118.66" fill="none" stroke="black"></path>
</g>
<!-- node39&#45;&gt;node38 -->
<g class="edge" id="edge31">
<title>node39-&gt;node38</title>
<path d="M1584.4,-1074C1595.64,-1074 1608.72,-1074 1619.92,-1074" fill="none" stroke="black"></path>
</g>
<!-- node40 -->
<g class="node" id="node40">
<title>node40</title>
<path d="M1662,-1035C1662,-1035 1632,-1035 1632,-1035 1626,-1035 1620,-1029 1620,-1023 1620,-1023 1620,-1011 1620,-1011 1620,-1005 1626,-999 1632,-999 1632,-999 1662,-999 1662,-999 1668,-999 1674,-1005 1674,-1011 1674,-1011 1674,-1023 1674,-1023 1674,-1029 1668,-1035 1662,-1035" fill="none" stroke="black"></path>
</g>
<!-- node41 -->
<g class="node" id="node41">
<title>node41</title>
<path d="M1842,-998C1842,-998 1812,-998 1812,-998 1806,-998 1800,-992 1800,-986 1800,-986 1800,-974 1800,-974 1800,-968 1806,-962 1812,-962 1812,-962 1842,-962 1842,-962 1848,-962 1854,-968 1854,-974 1854,-974 1854,-986 1854,-986 1854,-992 1848,-998 1842,-998" fill="none" stroke="black"></path>
</g>
<!-- node42 -->
<g class="node" id="node42">
<title>node42</title>
<path d="M2022,-1048C2022,-1048 1992,-1048 1992,-1048 1986,-1048 1980,-1042 1980,-1036 1980,-1036 1980,-1024 1980,-1024 1980,-1018 1986,-1012 1992,-1012 1992,-1012 2022,-1012 2022,-1012 2028,-1012 2034,-1018 2034,-1024 2034,-1024 2034,-1036 2034,-1036 2034,-1042 2028,-1048 2022,-1048" fill="none" stroke="black"></path>
</g>
<!-- node43 -->
<g class="node" id="node43">
<title>node43</title>
<path d="M2022,-994C2022,-994 1992,-994 1992,-994 1986,-994 1980,-988 1980,-982 1980,-982 1980,-970 1980,-970 1980,-964 1986,-958 1992,-958 1992,-958 2022,-958 2022,-958 2028,-958 2034,-964 2034,-970 2034,-970 2034,-982 2034,-982 2034,-988 2028,-994 2022,-994" fill="none" stroke="black"></path>
</g>
<!-- node44 -->
<g class="node" id="node44">
<title>node44</title>
<ellipse cx="1917" cy="-976" fill="green" rx="27" ry="18" stroke="black"></ellipse>
</g>
<!-- node44&#45;&gt;node42 -->
<g class="edge" id="edge32">
<title>node44-&gt;node42</title>
<path d="M1937.53,-987.98C1949.99,-995.63 1966.28,-1005.63 1979.85,-1013.95" fill="none" stroke="black"></path>
</g>
<!-- node44&#45;&gt;node43 -->
<g class="edge" id="edge33">
<title>node44-&gt;node43</title>
<path d="M1944.4,-976C1955.64,-976 1968.72,-976 1979.92,-976" fill="none" stroke="black"></path>
</g>
<!-- node45 -->
<g class="node" id="node45">
<title>node45</title>
<path d="M2022,-940C2022,-940 1992,-940 1992,-940 1986,-940 1980,-934 1980,-928 1980,-928 1980,-916 1980,-916 1980,-910 1986,-904 1992,-904 1992,-904 2022,-904 2022,-904 2028,-904 2034,-910 2034,-916 2034,-916 2034,-928 2034,-928 2034,-934 2028,-940 2022,-940" fill="none" stroke="black"></path>
</g>
<!-- node46 -->
<g class="node" id="node46">
<title>node46</title>
<path d="M2112,-913C2112,-913 2082,-913 2082,-913 2076,-913 2070,-907 2070,-901 2070,-901 2070,-889 2070,-889 2070,-883 2076,-877 2082,-877 2082,-877 2112,-877 2112,-877 2118,-877 2124,-883 2124,-889 2124,-889 2124,-901 2124,-901 2124,-907 2118,-913 2112,-913" fill="none" stroke="black"></path>
</g>
<!-- node47 -->
<g class="node" id="node47">
<title>node47</title>
<path d="M2112,-859C2112,-859 2082,-859 2082,-859 2076,-859 2070,-853 2070,-847 2070,-847 2070,-835 2070,-835 2070,-829 2076,-823 2082,-823 2082,-823 2112,-823 2112,-823 2118,-823 2124,-829 2124,-835 2124,-835 2124,-847 2124,-847 2124,-853 2118,-859 2112,-859" fill="blue" stroke="black"></path>
</g>
<!-- node48 -->
<g class="node" id="node48">
<title>node48</title>
<ellipse cx="2007" cy="-868" fill="green" rx="27" ry="18" stroke="black"></ellipse>
</g>
<!-- node48&#45;&gt;node46 -->
<g class="edge" id="edge34">
<title>node48-&gt;node46</title>
<path d="M2032.05,-875.38C2043.75,-878.97 2057.85,-883.29 2069.82,-886.97" fill="none" stroke="black"></path>
</g>
<!-- node48&#45;&gt;node47 -->
<g class="edge" id="edge35">
<title>node48-&gt;node47</title>
<path d="M2032.05,-860.62C2043.75,-857.03 2057.85,-852.71 2069.82,-849.03" fill="none" stroke="black"></path>
</g>
<!-- node49 -->
<g class="node" id="node49">
<title>node49</title>
<ellipse cx="1917" cy="-922" fill="yellow" rx="27" ry="18" stroke="black"></ellipse>
</g>
<!-- node49&#45;&gt;node45 -->
<g class="edge" id="edge36">
<title>node49-&gt;node45</title>
<path d="M1944.4,-922C1955.64,-922 1968.72,-922 1979.92,-922" fill="none" stroke="black"></path>
</g>
<!-- node49&#45;&gt;node48 -->
<g class="edge" id="edge37">
<title>node49-&gt;node48</title>
<path d="M1937.53,-910.02C1952.11,-901.07 1971.95,-888.89 1986.52,-879.95" fill="none" stroke="black"></path>
</g>
<!-- node50 -->
<g class="node" id="node50">
<title>node50</title>
<ellipse cx="1827" cy="-926" fill="yellow" rx="27" ry="18" stroke="black"></ellipse>
</g>
<!-- node50&#45;&gt;node44 -->
<g class="edge" id="edge38">
<title>node50-&gt;node44</title>
<path d="M1847.97,-937.35C1862.27,-945.47 1881.45,-956.37 1895.81,-964.53" fill="none" stroke="black"></path>
</g>
<!-- node50&#45;&gt;node49 -->
<g class="edge" id="edge39">
<title>node50-&gt;node49</title>
<path d="M1854.4,-924.8C1865.64,-924.29 1878.72,-923.69 1889.92,-923.19" fill="none" stroke="black"></path>
</g>
<!-- node51 -->
<g class="node" id="node51">
<title>node51</title>
<ellipse cx="1737" cy="-953" fill="green" rx="27" ry="18" stroke="black"></ellipse>
</g>
<!-- node51&#45;&gt;node41 -->
<g class="edge" id="edge40">
<title>node51-&gt;node41</title>
<path d="M1762.05,-960.38C1773.75,-963.97 1787.85,-968.29 1799.82,-971.97" fill="none" stroke="black"></path>
</g>
<!-- node51&#45;&gt;node50 -->
<g class="edge" id="edge41">
<title>node51-&gt;node50</title>
<path d="M1762.05,-945.62C1774.57,-941.78 1789.82,-937.1 1802.29,-933.28" fill="none" stroke="black"></path>
</g>
<!-- node52 -->
<g class="node" id="node52">
<title>node52</title>
<path d="M1842,-877C1842,-877 1812,-877 1812,-877 1806,-877 1800,-871 1800,-865 1800,-865 1800,-853 1800,-853 1800,-847 1806,-841 1812,-841 1812,-841 1842,-841 1842,-841 1848,-841 1854,-847 1854,-853 1854,-853 1854,-865 1854,-865 1854,-871 1848,-877 1842,-877" fill="none" stroke="black"></path>
</g>
<!-- node53 -->
<g class="node" id="node53">
<title>node53</title>
<path d="M2022,-832C2022,-832 1992,-832 1992,-832 1986,-832 1980,-826 1980,-820 1980,-820 1980,-808 1980,-808 1980,-802 1986,-796 1992,-796 1992,-796 2022,-796 2022,-796 2028,-796 2034,-802 2034,-808 2034,-808 2034,-820 2034,-820 2034,-826 2028,-832 2022,-832" fill="none" stroke="black"></path>
</g>
<!-- node54 -->
<g class="node" id="node54">
<title>node54</title>
<path d="M2022,-778C2022,-778 1992,-778 1992,-778 1986,-778 1980,-772 1980,-766 1980,-766 1980,-754 1980,-754 1980,-748 1986,-742 1992,-742 1992,-742 2022,-742 2022,-742 2028,-742 2034,-748 2034,-754 2034,-754 2034,-766 2034,-766 2034,-772 2028,-778 2022,-778" fill="none" stroke="black"></path>
</g>
<!-- node55 -->
<g class="node" id="node55">
<title>node55</title>
<ellipse cx="1917" cy="-787" fill="green" rx="27" ry="18" stroke="black"></ellipse>
</g>
<!-- node55&#45;&gt;node53 -->
<g class="edge" id="edge42">
<title>node55-&gt;node53</title>
<path d="M1942.05,-794.38C1953.75,-797.97 1967.85,-802.29 1979.82,-805.97" fill="none" stroke="black"></path>
</g>
<!-- node55&#45;&gt;node54 -->
<g class="edge" id="edge43">
<title>node55-&gt;node54</title>
<path d="M1942.05,-779.62C1953.75,-776.03 1967.85,-771.71 1979.82,-768.03" fill="none" stroke="black"></path>
</g>
<!-- node56 -->
<g class="node" id="node56">
<title>node56</title>
<path d="M2022,-724C2022,-724 1992,-724 1992,-724 1986,-724 1980,-718 1980,-712 1980,-712 1980,-700 1980,-700 1980,-694 1986,-688 1992,-688 1992,-688 2022,-688 2022,-688 2028,-688 2034,-694 2034,-700 2034,-700 2034,-712 2034,-712 2034,-718 2028,-724 2022,-724" fill="none" stroke="black"></path>
</g>
<!-- node57 -->
<g class="node" id="node57">
<title>node57</title>
<path d="M2112,-697C2112,-697 2082,-697 2082,-697 2076,-697 2070,-691 2070,-685 2070,-685 2070,-673 2070,-673 2070,-667 2076,-661 2082,-661 2082,-661 2112,-661 2112,-661 2118,-661 2124,-667 2124,-673 2124,-673 2124,-685 2124,-685 2124,-691 2118,-697 2112,-697" fill="none" stroke="black"></path>
</g>
<!-- node58 -->
<g class="node" id="node58">
<title>node58</title>
<path d="M2112,-643C2112,-643 2082,-643 2082,-643 2076,-643 2070,-637 2070,-631 2070,-631 2070,-619 2070,-619 2070,-613 2076,-607 2082,-607 2082,-607 2112,-607 2112,-607 2118,-607 2124,-613 2124,-619 2124,-619 2124,-631 2124,-631 2124,-637 2118,-643 2112,-643" fill="none" stroke="black"></path>
</g>
<!-- node59 -->
<g class="node" id="node59">
<title>node59</title>
<ellipse cx="2007" cy="-652" fill="green" rx="27" ry="18" stroke="black"></ellipse>
</g>
<!-- node59&#45;&gt;node57 -->
<g class="edge" id="edge44">
<title>node59-&gt;node57</title>
<path d="M2032.05,-659.38C2043.75,-662.97 2057.85,-667.29 2069.82,-670.97" fill="none" stroke="black"></path>
</g>
<!-- node59&#45;&gt;node58 -->
<g class="edge" id="edge45">
<title>node59-&gt;node58</title>
<path d="M2032.05,-644.62C2043.75,-641.03 2057.85,-636.71 2069.82,-633.03" fill="none" stroke="black"></path>
</g>
<!-- node60 -->
<g class="node" id="node60">
<title>node60</title>
<ellipse cx="1917" cy="-706" fill="yellow" rx="27" ry="18" stroke="black"></ellipse>
</g>
<!-- node60&#45;&gt;node56 -->
<g class="edge" id="edge46">
<title>node60-&gt;node56</title>
<path d="M1944.4,-706C1955.64,-706 1968.72,-706 1979.92,-706" fill="none" stroke="black"></path>
</g>
<!-- node60&#45;&gt;node59 -->
<g class="edge" id="edge47">
<title>node60-&gt;node59</title>
<path d="M1937.53,-694.02C1952.11,-685.07 1971.95,-672.89 1986.52,-663.95" fill="none" stroke="black"></path>
</g>
<!-- node61 -->
<g class="node" id="node61">
<title>node61</title>
<ellipse cx="1827" cy="-787" fill="yellow" rx="27" ry="18" stroke="black"></ellipse>
</g>
<!-- node61&#45;&gt;node55 -->
<g class="edge" id="edge48">
<title>node61-&gt;node55</title>
<path d="M1854.4,-787C1865.64,-787 1878.72,-787 1889.92,-787" fill="none" stroke="black"></path>
</g>
<!-- node61&#45;&gt;node60 -->
<g class="edge" id="edge49">
<title>node61-&gt;node60</title>
<path d="M1843.73,-772.52C1859.75,-757.78 1884.44,-735.05 1900.4,-720.36" fill="none" stroke="black"></path>
</g>
<!-- node62 -->
<g class="node" id="node62">
<title>node62</title>
<ellipse cx="1737" cy="-859" fill="yellow" rx="27" ry="18" stroke="black"></ellipse>
</g>
<!-- node62&#45;&gt;node52 -->
<g class="edge" id="edge50">
<title>node62-&gt;node52</title>
<path d="M1764.4,-859C1775.64,-859 1788.72,-859 1799.92,-859" fill="none" stroke="black"></path>
</g>
<!-- node62&#45;&gt;node61 -->
<g class="edge" id="edge51">
<title>node62-&gt;node61</title>
<path d="M1754.97,-845.12C1770.55,-832.37 1793.52,-813.58 1809.08,-800.84" fill="none" stroke="black"></path>
</g>
<!-- node63 -->
<g class="node" id="node63">
<title>node63</title>
<ellipse cx="1647" cy="-953" fill="yellow" rx="27" ry="18" stroke="black"></ellipse>
</g>
<!-- node63&#45;&gt;node51 -->
<g class="edge" id="edge52">
<title>node63-&gt;node51</title>
<path d="M1674.4,-953C1685.64,-953 1698.72,-953 1709.92,-953" fill="none" stroke="black"></path>
</g>
<!-- node63&#45;&gt;node62 -->
<g class="edge" id="edge53">
<title>node63-&gt;node62</title>
<path d="M1662.14,-937.9C1678.56,-920.36 1705.49,-891.59 1721.9,-874.07" fill="none" stroke="black"></path>
</g>
<!-- node64 -->
<g class="node" id="node64">
<title>node64</title>
<ellipse cx="1557" cy="-1017" fill="yellow" rx="27" ry="18" stroke="black"></ellipse>
</g>
<!-- node64&#45;&gt;node40 -->
<g class="edge" id="edge54">
<title>node64-&gt;node40</title>
<path d="M1584.4,-1017C1595.64,-1017 1608.72,-1017 1619.92,-1017" fill="none" stroke="black"></path>
</g>
<!-- node64&#45;&gt;node63 -->
<g class="edge" id="edge55">
<title>node64-&gt;node63</title>
<path d="M1575.81,-1004.05C1591.08,-992.94 1612.96,-977.03 1628.22,-965.93" fill="none" stroke="black"></path>
</g>
<!-- node65 -->
<g class="node" id="node65">
<title>node65</title>
<ellipse cx="1467" cy="-1074" fill="yellow" rx="27" ry="18" stroke="black"></ellipse>
</g>
<!-- node65&#45;&gt;node39 -->
<g class="edge" id="edge56">
<title>node65-&gt;node39</title>
<path d="M1494.4,-1074C1505.64,-1074 1518.72,-1074 1529.92,-1074" fill="none" stroke="black"></path>
</g>
<!-- node65&#45;&gt;node64 -->
<g class="edge" id="edge57">
<title>node65-&gt;node64</title>
<path d="M1487.09,-1061.63C1501.86,-1052.07 1522.19,-1038.9 1536.94,-1029.34" fill="none" stroke="black"></path>
</g>
<!-- node66 -->
<g class="node" id="node66">
<title>node66</title>
<path d="M1482,-1038C1482,-1038 1452,-1038 1452,-1038 1446,-1038 1440,-1032 1440,-1026 1440,-1026 1440,-1014 1440,-1014 1440,-1008 1446,-1002 1452,-1002 1452,-1002 1482,-1002 1482,-1002 1488,-1002 1494,-1008 1494,-1014 1494,-1014 1494,-1026 1494,-1026 1494,-1032 1488,-1038 1482,-1038" fill="none" stroke="black"></path>
</g>
<!-- node67 -->
<g class="node" id="node67">
<title>node67</title>
<ellipse cx="1377" cy="-1020" fill="green" rx="27" ry="18" stroke="black"></ellipse>
</g>
<!-- node67&#45;&gt;node65 -->
<g class="edge" id="edge58">
<title>node67-&gt;node65</title>
<path d="M1397.53,-1031.98C1412.11,-1040.93 1431.95,-1053.11 1446.52,-1062.05" fill="none" stroke="black"></path>
</g>
<!-- node67&#45;&gt;node66 -->
<g class="edge" id="edge59">
<title>node67-&gt;node66</title>
<path d="M1404.4,-1020C1415.64,-1020 1428.72,-1020 1439.92,-1020" fill="none" stroke="black"></path>
</g>
<!-- node68 -->
<g class="node" id="node68">
<title>node68</title>
<path d="M1482,-984C1482,-984 1452,-984 1452,-984 1446,-984 1440,-978 1440,-972 1440,-972 1440,-960 1440,-960 1440,-954 1446,-948 1452,-948 1452,-948 1482,-948 1482,-948 1488,-948 1494,-954 1494,-960 1494,-960 1494,-972 1494,-972 1494,-978 1488,-984 1482,-984" fill="none" stroke="black"></path>
</g>
<!-- node69 -->
<g class="node" id="node69">
<title>node69</title>
<path d="M1572,-981C1572,-981 1542,-981 1542,-981 1536,-981 1530,-975 1530,-969 1530,-969 1530,-957 1530,-957 1530,-951 1536,-945 1542,-945 1542,-945 1572,-945 1572,-945 1578,-945 1584,-951 1584,-957 1584,-957 1584,-969 1584,-969 1584,-975 1578,-981 1572,-981" fill="none" stroke="black"></path>
</g>
<!-- node70 -->
<g class="node" id="node70">
<title>node70</title>
<path d="M1572,-927C1572,-927 1542,-927 1542,-927 1536,-927 1530,-921 1530,-915 1530,-915 1530,-903 1530,-903 1530,-897 1536,-891 1542,-891 1542,-891 1572,-891 1572,-891 1578,-891 1584,-897 1584,-903 1584,-903 1584,-915 1584,-915 1584,-921 1578,-927 1572,-927" fill="blue" stroke="black"></path>
</g>
<!-- node71 -->
<g class="node" id="node71">
<title>node71</title>
<ellipse cx="1467" cy="-912" fill="green" rx="27" ry="18" stroke="black"></ellipse>
</g>
<!-- node71&#45;&gt;node69 -->
<g class="edge" id="edge60">
<title>node71-&gt;node69</title>
<path d="M1487.97,-923.57C1500.34,-930.74 1516.37,-940.03 1529.76,-947.8" fill="none" stroke="black"></path>
</g>
<!-- node71&#45;&gt;node70 -->
<g class="edge" id="edge61">
<title>node71-&gt;node70</title>
<path d="M1494.4,-911.1C1505.64,-910.72 1518.72,-910.27 1529.92,-909.89" fill="none" stroke="black"></path>
</g>
<!-- node72 -->
<g class="node" id="node72">
<title>node72</title>
<ellipse cx="1377" cy="-966" fill="yellow" rx="27" ry="18" stroke="black"></ellipse>
</g>
<!-- node72&#45;&gt;node68 -->
<g class="edge" id="edge62">
<title>node72-&gt;node68</title>
<path d="M1404.4,-966C1415.64,-966 1428.72,-966 1439.92,-966" fill="none" stroke="black"></path>
</g>
<!-- node72&#45;&gt;node71 -->
<g class="edge" id="edge63">
<title>node72-&gt;node71</title>
<path d="M1397.53,-954.02C1412.11,-945.07 1431.95,-932.89 1446.52,-923.95" fill="none" stroke="black"></path>
</g>
<!-- node73 -->
<g class="node" id="node73">
<title>node73</title>
<ellipse cx="1287" cy="-969" fill="yellow" rx="27" ry="18" stroke="black"></ellipse>
</g>
<!-- node73&#45;&gt;node67 -->
<g class="edge" id="edge64">
<title>node73-&gt;node67</title>
<path d="M1307.97,-980.57C1322.37,-988.92 1341.73,-1000.14 1356.11,-1008.47" fill="none" stroke="black"></path>
</g>
<!-- node73&#45;&gt;node72 -->
<g class="edge" id="edge65">
<title>node73-&gt;node72</title>
<path d="M1314.4,-968.1C1325.64,-967.72 1338.72,-967.27 1349.92,-966.89" fill="none" stroke="black"></path>
</g>
<!-- node74 -->
<g class="node" id="node74">
<title>node74</title>
<ellipse cx="1197" cy="-976" fill="green" rx="27" ry="18" stroke="black"></ellipse>
</g>
<!-- node74&#45;&gt;node24 -->
<g class="edge" id="edge66">
<title>node74-&gt;node24</title>
<path d="M1218.85,-987.14C1231.15,-993.71 1246.83,-1002.08 1259.94,-1009.08" fill="none" stroke="black"></path>
</g>
<!-- node74&#45;&gt;node73 -->
<g class="edge" id="edge67">
<title>node74-&gt;node73</title>
<path d="M1223.93,-973.94C1235.28,-973.03 1248.58,-971.98 1259.95,-971.07" fill="none" stroke="black"></path>
</g>
<!-- node75 -->
<g class="node" id="node75">
<title>node75</title>
<path d="M1302,-920C1302,-920 1272,-920 1272,-920 1266,-920 1260,-914 1260,-908 1260,-908 1260,-896 1260,-896 1260,-890 1266,-884 1272,-884 1272,-884 1302,-884 1302,-884 1308,-884 1314,-890 1314,-896 1314,-896 1314,-908 1314,-908 1314,-914 1308,-920 1302,-920" fill="none" stroke="black"></path>
</g>
<!-- node76 -->
<g class="node" id="node76">
<title>node76</title>
<path d="M1482,-876C1482,-876 1452,-876 1452,-876 1446,-876 1440,-870 1440,-864 1440,-864 1440,-852 1440,-852 1440,-846 1446,-840 1452,-840 1452,-840 1482,-840 1482,-840 1488,-840 1494,-846 1494,-852 1494,-852 1494,-864 1494,-864 1494,-870 1488,-876 1482,-876" fill="none" stroke="black"></path>
</g>
<!-- node77 -->
<g class="node" id="node77">
<title>node77</title>
<path d="M1482,-822C1482,-822 1452,-822 1452,-822 1446,-822 1440,-816 1440,-810 1440,-810 1440,-798 1440,-798 1440,-792 1446,-786 1452,-786 1452,-786 1482,-786 1482,-786 1488,-786 1494,-792 1494,-798 1494,-798 1494,-810 1494,-810 1494,-816 1488,-822 1482,-822" fill="blue" stroke="black"></path>
</g>
<!-- node78 -->
<g class="node" id="node78">
<title>node78</title>
<ellipse cx="1377" cy="-821" fill="green" rx="27" ry="18" stroke="black"></ellipse>
</g>
<!-- node78&#45;&gt;node76 -->
<g class="edge" id="edge68">
<title>node78-&gt;node76</title>
<path d="M1400.21,-830.34C1412.22,-835.39 1427.14,-841.66 1439.73,-846.96" fill="none" stroke="black"></path>
</g>
<!-- node78&#45;&gt;node77 -->
<g class="edge" id="edge69">
<title>node78-&gt;node77</title>
<path d="M1403.45,-816.08C1414.93,-813.87 1428.46,-811.25 1439.99,-809.02" fill="none" stroke="black"></path>
</g>
<!-- node79 -->
<g class="node" id="node79">
<title>node79</title>
<path d="M1482,-768C1482,-768 1452,-768 1452,-768 1446,-768 1440,-762 1440,-756 1440,-756 1440,-744 1440,-744 1440,-738 1446,-732 1452,-732 1452,-732 1482,-732 1482,-732 1488,-732 1494,-738 1494,-744 1494,-744 1494,-756 1494,-756 1494,-762 1488,-768 1482,-768" fill="none" stroke="black"></path>
</g>
<!-- node80 -->
<g class="node" id="node80">
<title>node80</title>
<path d="M1662,-822C1662,-822 1632,-822 1632,-822 1626,-822 1620,-816 1620,-810 1620,-810 1620,-798 1620,-798 1620,-792 1626,-786 1632,-786 1632,-786 1662,-786 1662,-786 1668,-786 1674,-792 1674,-798 1674,-798 1674,-810 1674,-810 1674,-816 1668,-822 1662,-822" fill="none" stroke="black"></path>
</g>
<!-- node81 -->
<g class="node" id="node81">
<title>node81</title>
<path d="M1662,-768C1662,-768 1632,-768 1632,-768 1626,-768 1620,-762 1620,-756 1620,-756 1620,-744 1620,-744 1620,-738 1626,-732 1632,-732 1632,-732 1662,-732 1662,-732 1668,-732 1674,-738 1674,-744 1674,-744 1674,-756 1674,-756 1674,-762 1668,-768 1662,-768" fill="none" stroke="black"></path>
</g>
<!-- node82 -->
<g class="node" id="node82">
<title>node82</title>
<ellipse cx="1557" cy="-750" fill="green" rx="27" ry="18" stroke="black"></ellipse>
</g>
<!-- node82&#45;&gt;node80 -->
<g class="edge" id="edge70">
<title>node82-&gt;node80</title>
<path d="M1577.53,-761.98C1589.99,-769.63 1606.28,-779.63 1619.85,-787.95" fill="none" stroke="black"></path>
</g>
<!-- node82&#45;&gt;node81 -->
<g class="edge" id="edge71">
<title>node82-&gt;node81</title>
<path d="M1584.4,-750C1595.64,-750 1608.72,-750 1619.92,-750" fill="none" stroke="black"></path>
</g>
<!-- node83 -->
<g class="node" id="node83">
<title>node83</title>
<path d="M1662,-714C1662,-714 1632,-714 1632,-714 1626,-714 1620,-708 1620,-702 1620,-702 1620,-690 1620,-690 1620,-684 1626,-678 1632,-678 1632,-678 1662,-678 1662,-678 1668,-678 1674,-684 1674,-690 1674,-690 1674,-702 1674,-702 1674,-708 1668,-714 1662,-714" fill="none" stroke="black"></path>
</g>
<!-- node84 -->
<g class="node" id="node84">
<title>node84</title>
<path d="M1752,-687C1752,-687 1722,-687 1722,-687 1716,-687 1710,-681 1710,-675 1710,-675 1710,-663 1710,-663 1710,-657 1716,-651 1722,-651 1722,-651 1752,-651 1752,-651 1758,-651 1764,-657 1764,-663 1764,-663 1764,-675 1764,-675 1764,-681 1758,-687 1752,-687" fill="none" stroke="black"></path>
</g>
<!-- node85 -->
<g class="node" id="node85">
<title>node85</title>
<path d="M1752,-633C1752,-633 1722,-633 1722,-633 1716,-633 1710,-627 1710,-621 1710,-621 1710,-609 1710,-609 1710,-603 1716,-597 1722,-597 1722,-597 1752,-597 1752,-597 1758,-597 1764,-603 1764,-609 1764,-609 1764,-621 1764,-621 1764,-627 1758,-633 1752,-633" fill="blue" stroke="black"></path>
</g>
<!-- node86 -->
<g class="node" id="node86">
<title>node86</title>
<ellipse cx="1647" cy="-642" fill="green" rx="27" ry="18" stroke="black"></ellipse>
</g>
<!-- node86&#45;&gt;node84 -->
<g class="edge" id="edge72">
<title>node86-&gt;node84</title>
<path d="M1672.05,-649.38C1683.75,-652.97 1697.85,-657.29 1709.82,-660.97" fill="none" stroke="black"></path>
</g>
<!-- node86&#45;&gt;node85 -->
<g class="edge" id="edge73">
<title>node86-&gt;node85</title>
<path d="M1672.05,-634.62C1683.75,-631.03 1697.85,-626.71 1709.82,-623.03" fill="none" stroke="black"></path>
</g>
<!-- node87 -->
<g class="node" id="node87">
<title>node87</title>
<ellipse cx="1557" cy="-696" fill="yellow" rx="27" ry="18" stroke="black"></ellipse>
</g>
<!-- node87&#45;&gt;node83 -->
<g class="edge" id="edge74">
<title>node87-&gt;node83</title>
<path d="M1584.4,-696C1595.64,-696 1608.72,-696 1619.92,-696" fill="none" stroke="black"></path>
</g>
<!-- node87&#45;&gt;node86 -->
<g class="edge" id="edge75">
<title>node87-&gt;node86</title>
<path d="M1577.53,-684.02C1592.11,-675.07 1611.95,-662.89 1626.52,-653.95" fill="none" stroke="black"></path>
</g>
<!-- node88 -->
<g class="node" id="node88">
<title>node88</title>
<ellipse cx="1467" cy="-696" fill="yellow" rx="27" ry="18" stroke="black"></ellipse>
</g>
<!-- node88&#45;&gt;node82 -->
<g class="edge" id="edge76">
<title>node88-&gt;node82</title>
<path d="M1487.53,-707.98C1502.11,-716.93 1521.95,-729.11 1536.52,-738.05" fill="none" stroke="black"></path>
</g>
<!-- node88&#45;&gt;node87 -->
<g class="edge" id="edge77">
<title>node88-&gt;node87</title>
<path d="M1494.4,-696C1505.64,-696 1518.72,-696 1529.92,-696" fill="none" stroke="black"></path>
</g>
<!-- node89 -->
<g class="node" id="node89">
<title>node89</title>
<ellipse cx="1377" cy="-750" fill="yellow" rx="27" ry="18" stroke="black"></ellipse>
</g>
<!-- node89&#45;&gt;node79 -->
<g class="edge" id="edge78">
<title>node89-&gt;node79</title>
<path d="M1404.4,-750C1415.64,-750 1428.72,-750 1439.92,-750" fill="none" stroke="black"></path>
</g>
<!-- node89&#45;&gt;node88 -->
<g class="edge" id="edge79">
<title>node89-&gt;node88</title>
<path d="M1397.53,-738.02C1412.11,-729.07 1431.95,-716.89 1446.52,-707.95" fill="none" stroke="black"></path>
</g>
<!-- node90 -->
<g class="node" id="node90">
<title>node90</title>
<ellipse cx="1287" cy="-821" fill="yellow" rx="27" ry="18" stroke="black"></ellipse>
</g>
<!-- node90&#45;&gt;node78 -->
<g class="edge" id="edge80">
<title>node90-&gt;node78</title>
<path d="M1314.4,-821C1325.64,-821 1338.72,-821 1349.92,-821" fill="none" stroke="black"></path>
</g>
<!-- node90&#45;&gt;node89 -->
<g class="edge" id="edge81">
<title>node90-&gt;node89</title>
<path d="M1304.97,-807.31C1320.55,-794.74 1343.52,-776.21 1359.08,-763.65" fill="none" stroke="black"></path>
</g>
<!-- node91 -->
<g class="node" id="node91">
<title>node91</title>
<ellipse cx="1197" cy="-902" fill="yellow" rx="27" ry="18" stroke="black"></ellipse>
</g>
<!-- node91&#45;&gt;node75 -->
<g class="edge" id="edge82">
<title>node91-&gt;node75</title>
<path d="M1224.4,-902C1235.64,-902 1248.72,-902 1259.92,-902" fill="none" stroke="black"></path>
</g>
<!-- node91&#45;&gt;node90 -->
<g class="edge" id="edge83">
<title>node91-&gt;node90</title>
<path d="M1213.73,-887.52C1229.75,-872.78 1254.44,-850.05 1270.4,-835.36" fill="none" stroke="black"></path>
</g>
<!-- node92 -->
<g class="node" id="node92">
<title>node92</title>
<ellipse cx="1107" cy="-976" fill="yellow" rx="27" ry="18" stroke="black"></ellipse>
</g>
<!-- node92&#45;&gt;node74 -->
<g class="edge" id="edge84">
<title>node92-&gt;node74</title>
<path d="M1134.4,-976C1145.64,-976 1158.72,-976 1169.92,-976" fill="none" stroke="black"></path>
</g>
<!-- node92&#45;&gt;node91 -->
<g class="edge" id="edge85">
<title>node92-&gt;node91</title>
<path d="M1124.55,-962.08C1140.29,-948.85 1163.81,-929.07 1179.52,-915.86" fill="none" stroke="black"></path>
</g>
<!-- node93 -->
<g class="node" id="node93">
<title>node93</title>
<ellipse cx="1017" cy="-1034" fill="yellow" rx="27" ry="18" stroke="black"></ellipse>
</g>
<!-- node93&#45;&gt;node23 -->
<g class="edge" id="edge86">
<title>node93-&gt;node23</title>
<path d="M1044.4,-1034C1055.64,-1034 1068.72,-1034 1079.92,-1034" fill="none" stroke="black"></path>
</g>
<!-- node93&#45;&gt;node92 -->
<g class="edge" id="edge87">
<title>node93-&gt;node92</title>
<path d="M1037.09,-1021.41C1051.96,-1011.62 1072.47,-998.1 1087.24,-988.36" fill="none" stroke="black"></path>
</g>
<!-- node94 -->
<g class="node" id="node94">
<title>node94</title>
<ellipse cx="927" cy="-1047" fill="yellow" rx="27" ry="18" stroke="black"></ellipse>
</g>
<!-- node94&#45;&gt;node22 -->
<g class="edge" id="edge88">
<title>node94-&gt;node22</title>
<path d="M947.97,-1058.57C962.37,-1066.92 981.73,-1078.14 996.11,-1086.47" fill="none" stroke="black"></path>
</g>
<!-- node94&#45;&gt;node93 -->
<g class="edge" id="edge89">
<title>node94-&gt;node93</title>
<path d="M953.45,-1043.24C965.03,-1041.53 978.7,-1039.51 990.3,-1037.8" fill="none" stroke="black"></path>
</g>
<!-- node95 -->
<g class="node" id="node95">
<title>node95</title>
<path d="M942,-1011C942,-1011 912,-1011 912,-1011 906,-1011 900,-1005 900,-999 900,-999 900,-987 900,-987 900,-981 906,-975 912,-975 912,-975 942,-975 942,-975 948,-975 954,-981 954,-987 954,-987 954,-999 954,-999 954,-1005 948,-1011 942,-1011" fill="none" stroke="black"></path>
</g>
<!-- node96 -->
<g class="node" id="node96">
<title>node96</title>
<ellipse cx="837" cy="-993" fill="green" rx="27" ry="18" stroke="black"></ellipse>
</g>
<!-- node96&#45;&gt;node94 -->
<g class="edge" id="edge90">
<title>node96-&gt;node94</title>
<path d="M857.53,-1004.98C872.11,-1013.93 891.95,-1026.11 906.52,-1035.05" fill="none" stroke="black"></path>
</g>
<!-- node96&#45;&gt;node95 -->
<g class="edge" id="edge91">
<title>node96-&gt;node95</title>
<path d="M864.4,-993C875.64,-993 888.72,-993 899.92,-993" fill="none" stroke="black"></path>
</g>
<!-- node97 -->
<g class="node" id="node97">
<title>node97</title>
<path d="M942,-957C942,-957 912,-957 912,-957 906,-957 900,-951 900,-945 900,-945 900,-933 900,-933 900,-927 906,-921 912,-921 912,-921 942,-921 942,-921 948,-921 954,-927 954,-933 954,-933 954,-945 954,-945 954,-951 948,-957 942,-957" fill="none" stroke="black"></path>
</g>
<!-- node98 -->
<g class="node" id="node98">
<title>node98</title>
<path d="M1032,-930C1032,-930 1002,-930 1002,-930 996,-930 990,-924 990,-918 990,-918 990,-906 990,-906 990,-900 996,-894 1002,-894 1002,-894 1032,-894 1032,-894 1038,-894 1044,-900 1044,-906 1044,-906 1044,-918 1044,-918 1044,-924 1038,-930 1032,-930" fill="none" stroke="black"></path>
</g>
<!-- node99 -->
<g class="node" id="node99">
<title>node99</title>
<path d="M1032,-876C1032,-876 1002,-876 1002,-876 996,-876 990,-870 990,-864 990,-864 990,-852 990,-852 990,-846 996,-840 1002,-840 1002,-840 1032,-840 1032,-840 1038,-840 1044,-846 1044,-852 1044,-852 1044,-864 1044,-864 1044,-870 1038,-876 1032,-876" fill="none" stroke="black"></path>
</g>
<!-- node100 -->
<g class="node" id="node100">
<title>node100</title>
<ellipse cx="927" cy="-885" fill="green" rx="27" ry="18" stroke="black"></ellipse>
</g>
<!-- node100&#45;&gt;node98 -->
<g class="edge" id="edge92">
<title>node100-&gt;node98</title>
<path d="M952.05,-892.38C963.75,-895.97 977.85,-900.29 989.82,-903.97" fill="none" stroke="black"></path>
</g>
<!-- node100&#45;&gt;node99 -->
<g class="edge" id="edge93">
<title>node100-&gt;node99</title>
<path d="M952.05,-877.62C963.75,-874.03 977.85,-869.71 989.82,-866.03" fill="none" stroke="black"></path>
</g>
<!-- node101 -->
<g class="node" id="node101">
<title>node101</title>
<ellipse cx="837" cy="-912" fill="yellow" rx="27" ry="18" stroke="black"></ellipse>
</g>
<!-- node101&#45;&gt;node97 -->
<g class="edge" id="edge94">
<title>node101-&gt;node97</title>
<path d="M862.05,-919.38C873.75,-922.97 887.85,-927.29 899.82,-930.97" fill="none" stroke="black"></path>
</g>
<!-- node101&#45;&gt;node100 -->
<g class="edge" id="edge95">
<title>node101-&gt;node100</title>
<path d="M862.05,-904.62C874.57,-900.78 889.82,-896.1 902.29,-892.28" fill="none" stroke="black"></path>
</g>
<!-- node102 -->
<g class="node" id="node102">
<title>node102</title>
<ellipse cx="747" cy="-912" fill="yellow" rx="27" ry="18" stroke="black"></ellipse>
</g>
<!-- node102&#45;&gt;node96 -->
<g class="edge" id="edge96">
<title>node102-&gt;node96</title>
<path d="M763.73,-926.48C779.75,-941.22 804.44,-963.95 820.4,-978.64" fill="none" stroke="black"></path>
</g>
<!-- node102&#45;&gt;node101 -->
<g class="edge" id="edge97">
<title>node102-&gt;node101</title>
<path d="M774.4,-912C785.64,-912 798.72,-912 809.92,-912" fill="none" stroke="black"></path>
</g>
<!-- node103 -->
<g class="node" id="node103">
<title>node103</title>
<ellipse cx="657" cy="-912" fill="green" rx="27" ry="18" stroke="black"></ellipse>
</g>
<!-- node103&#45;&gt;node7 -->
<g class="edge" id="edge98">
<title>node103-&gt;node7</title>
<path d="M677.53,-923.98C689.99,-931.63 706.28,-941.63 719.85,-949.95" fill="none" stroke="black"></path>
</g>
<!-- node103&#45;&gt;node102 -->
<g class="edge" id="edge99">
<title>node103-&gt;node102</title>
<path d="M684.4,-912C695.64,-912 708.72,-912 719.92,-912" fill="none" stroke="black"></path>
</g>
<!-- node104 -->
<g class="node" id="node104">
<title>node104</title>
<path d="M762,-876C762,-876 732,-876 732,-876 726,-876 720,-870 720,-864 720,-864 720,-852 720,-852 720,-846 726,-840 732,-840 732,-840 762,-840 762,-840 768,-840 774,-846 774,-852 774,-852 774,-864 774,-864 774,-870 768,-876 762,-876" fill="none" stroke="black"></path>
</g>
<!-- node105 -->
<g class="node" id="node105">
<title>node105</title>
<path d="M942,-849C942,-849 912,-849 912,-849 906,-849 900,-843 900,-837 900,-837 900,-825 900,-825 900,-819 906,-813 912,-813 912,-813 942,-813 942,-813 948,-813 954,-819 954,-825 954,-825 954,-837 954,-837 954,-843 948,-849 942,-849" fill="none" stroke="black"></path>
</g>
<!-- node106 -->
<g class="node" id="node106">
<title>node106</title>
<path d="M942,-795C942,-795 912,-795 912,-795 906,-795 900,-789 900,-783 900,-783 900,-771 900,-771 900,-765 906,-759 912,-759 912,-759 942,-759 942,-759 948,-759 954,-765 954,-771 954,-771 954,-783 954,-783 954,-789 948,-795 942,-795" fill="none" stroke="black"></path>
</g>
<!-- node107 -->
<g class="node" id="node107">
<title>node107</title>
<ellipse cx="837" cy="-804" fill="green" rx="27" ry="18" stroke="black"></ellipse>
</g>
<!-- node107&#45;&gt;node105 -->
<g class="edge" id="edge100">
<title>node107-&gt;node105</title>
<path d="M862.05,-811.38C873.75,-814.97 887.85,-819.29 899.82,-822.97" fill="none" stroke="black"></path>
</g>
<!-- node107&#45;&gt;node106 -->
<g class="edge" id="edge101">
<title>node107-&gt;node106</title>
<path d="M862.05,-796.62C873.75,-793.03 887.85,-788.71 899.82,-785.03" fill="none" stroke="black"></path>
</g>
<!-- node108 -->
<g class="node" id="node108">
<title>node108</title>
<path d="M942,-741C942,-741 912,-741 912,-741 906,-741 900,-735 900,-729 900,-729 900,-717 900,-717 900,-711 906,-705 912,-705 912,-705 942,-705 942,-705 948,-705 954,-711 954,-717 954,-717 954,-729 954,-729 954,-735 948,-741 942,-741" fill="none" stroke="black"></path>
</g>
<!-- node109 -->
<g class="node" id="node109">
<title>node109</title>
<path d="M1122,-795C1122,-795 1092,-795 1092,-795 1086,-795 1080,-789 1080,-783 1080,-783 1080,-771 1080,-771 1080,-765 1086,-759 1092,-759 1092,-759 1122,-759 1122,-759 1128,-759 1134,-765 1134,-771 1134,-771 1134,-783 1134,-783 1134,-789 1128,-795 1122,-795" fill="none" stroke="black"></path>
</g>
<!-- node110 -->
<g class="node" id="node110">
<title>node110</title>
<path d="M1122,-741C1122,-741 1092,-741 1092,-741 1086,-741 1080,-735 1080,-729 1080,-729 1080,-717 1080,-717 1080,-711 1086,-705 1092,-705 1092,-705 1122,-705 1122,-705 1128,-705 1134,-711 1134,-717 1134,-717 1134,-729 1134,-729 1134,-735 1128,-741 1122,-741" fill="blue" stroke="black"></path>
</g>
<!-- node111 -->
<g class="node" id="node111">
<title>node111</title>
<ellipse cx="1017" cy="-723" fill="green" rx="27" ry="18" stroke="black"></ellipse>
</g>
<!-- node111&#45;&gt;node109 -->
<g class="edge" id="edge102">
<title>node111-&gt;node109</title>
<path d="M1037.53,-734.98C1049.99,-742.63 1066.28,-752.63 1079.85,-760.95" fill="none" stroke="black"></path>
</g>
<!-- node111&#45;&gt;node110 -->
<g class="edge" id="edge103">
<title>node111-&gt;node110</title>
<path d="M1044.4,-723C1055.64,-723 1068.72,-723 1079.92,-723" fill="none" stroke="black"></path>
</g>
<!-- node112 -->
<g class="node" id="node112">
<title>node112</title>
<path d="M1122,-687C1122,-687 1092,-687 1092,-687 1086,-687 1080,-681 1080,-675 1080,-675 1080,-663 1080,-663 1080,-657 1086,-651 1092,-651 1092,-651 1122,-651 1122,-651 1128,-651 1134,-657 1134,-663 1134,-663 1134,-675 1134,-675 1134,-681 1128,-687 1122,-687" fill="none" stroke="black"></path>
</g>
<!-- node113 -->
<g class="node" id="node113">
<title>node113</title>
<path d="M1302,-741C1302,-741 1272,-741 1272,-741 1266,-741 1260,-735 1260,-729 1260,-729 1260,-717 1260,-717 1260,-711 1266,-705 1272,-705 1272,-705 1302,-705 1302,-705 1308,-705 1314,-711 1314,-717 1314,-717 1314,-729 1314,-729 1314,-735 1308,-741 1302,-741" fill="none" stroke="black"></path>
</g>
<!-- node114 -->
<g class="node" id="node114">
<title>node114</title>
<path d="M1302,-687C1302,-687 1272,-687 1272,-687 1266,-687 1260,-681 1260,-675 1260,-675 1260,-663 1260,-663 1260,-657 1266,-651 1272,-651 1272,-651 1302,-651 1302,-651 1308,-651 1314,-657 1314,-663 1314,-663 1314,-675 1314,-675 1314,-681 1308,-687 1302,-687" fill="blue" stroke="black"></path>
</g>
<!-- node115 -->
<g class="node" id="node115">
<title>node115</title>
<ellipse cx="1197" cy="-669" fill="green" rx="27" ry="18" stroke="black"></ellipse>
</g>
<!-- node115&#45;&gt;node113 -->
<g class="edge" id="edge104">
<title>node115-&gt;node113</title>
<path d="M1217.53,-680.98C1229.99,-688.63 1246.28,-698.63 1259.85,-706.95" fill="none" stroke="black"></path>
</g>
<!-- node115&#45;&gt;node114 -->
<g class="edge" id="edge105">
<title>node115-&gt;node114</title>
<path d="M1224.4,-669C1235.64,-669 1248.72,-669 1259.92,-669" fill="none" stroke="black"></path>
</g>
<!-- node116 -->
<g class="node" id="node116">
<title>node116</title>
<path d="M1302,-633C1302,-633 1272,-633 1272,-633 1266,-633 1260,-627 1260,-621 1260,-621 1260,-609 1260,-609 1260,-603 1266,-597 1272,-597 1272,-597 1302,-597 1302,-597 1308,-597 1314,-603 1314,-609 1314,-609 1314,-621 1314,-621 1314,-627 1308,-633 1302,-633" fill="none" stroke="black"></path>
</g>
<!-- node117 -->
<g class="node" id="node117">
<title>node117</title>
<path d="M1482,-660C1482,-660 1452,-660 1452,-660 1446,-660 1440,-654 1440,-648 1440,-648 1440,-636 1440,-636 1440,-630 1446,-624 1452,-624 1452,-624 1482,-624 1482,-624 1488,-624 1494,-630 1494,-636 1494,-636 1494,-648 1494,-648 1494,-654 1488,-660 1482,-660" fill="none" stroke="black"></path>
</g>
<!-- node118 -->
<g class="node" id="node118">
<title>node118</title>
<path d="M1482,-606C1482,-606 1452,-606 1452,-606 1446,-606 1440,-600 1440,-594 1440,-594 1440,-582 1440,-582 1440,-576 1446,-570 1452,-570 1452,-570 1482,-570 1482,-570 1488,-570 1494,-576 1494,-582 1494,-582 1494,-594 1494,-594 1494,-600 1488,-606 1482,-606" fill="blue" stroke="black"></path>
</g>
<!-- node119 -->
<g class="node" id="node119">
<title>node119</title>
<ellipse cx="1377" cy="-588" fill="green" rx="27" ry="18" stroke="black"></ellipse>
</g>
<!-- node119&#45;&gt;node117 -->
<g class="edge" id="edge106">
<title>node119-&gt;node117</title>
<path d="M1397.53,-599.98C1409.99,-607.63 1426.28,-617.63 1439.85,-625.95" fill="none" stroke="black"></path>
</g>
<!-- node119&#45;&gt;node118 -->
<g class="edge" id="edge107">
<title>node119-&gt;node118</title>
<path d="M1404.4,-588C1415.64,-588 1428.72,-588 1439.92,-588" fill="none" stroke="black"></path>
</g>
<!-- node120 -->
<g class="node" id="node120">
<title>node120</title>
<path d="M1482,-552C1482,-552 1452,-552 1452,-552 1446,-552 1440,-546 1440,-540 1440,-540 1440,-528 1440,-528 1440,-522 1446,-516 1452,-516 1452,-516 1482,-516 1482,-516 1488,-516 1494,-522 1494,-528 1494,-528 1494,-540 1494,-540 1494,-546 1488,-552 1482,-552" fill="none" stroke="black"></path>
</g>
<!-- node121 -->
<g class="node" id="node121">
<title>node121</title>
<path d="M1662,-606C1662,-606 1632,-606 1632,-606 1626,-606 1620,-600 1620,-594 1620,-594 1620,-582 1620,-582 1620,-576 1626,-570 1632,-570 1632,-570 1662,-570 1662,-570 1668,-570 1674,-576 1674,-582 1674,-582 1674,-594 1674,-594 1674,-600 1668,-606 1662,-606" fill="none" stroke="black"></path>
</g>
<!-- node122 -->
<g class="node" id="node122">
<title>node122</title>
<path d="M1662,-552C1662,-552 1632,-552 1632,-552 1626,-552 1620,-546 1620,-540 1620,-540 1620,-528 1620,-528 1620,-522 1626,-516 1632,-516 1632,-516 1662,-516 1662,-516 1668,-516 1674,-522 1674,-528 1674,-528 1674,-540 1674,-540 1674,-546 1668,-552 1662,-552" fill="blue" stroke="black"></path>
</g>
<!-- node123 -->
<g class="node" id="node123">
<title>node123</title>
<ellipse cx="1557" cy="-534" fill="green" rx="27" ry="18" stroke="black"></ellipse>
</g>
<!-- node123&#45;&gt;node121 -->
<g class="edge" id="edge108">
<title>node123-&gt;node121</title>
<path d="M1577.53,-545.98C1589.99,-553.63 1606.28,-563.63 1619.85,-571.95" fill="none" stroke="black"></path>
</g>
<!-- node123&#45;&gt;node122 -->
<g class="edge" id="edge109">
<title>node123-&gt;node122</title>
<path d="M1584.4,-534C1595.64,-534 1608.72,-534 1619.92,-534" fill="none" stroke="black"></path>
</g>
<!-- node124 -->
<g class="node" id="node124">
<title>node124</title>
<path d="M1662,-498C1662,-498 1632,-498 1632,-498 1626,-498 1620,-492 1620,-486 1620,-486 1620,-474 1620,-474 1620,-468 1626,-462 1632,-462 1632,-462 1662,-462 1662,-462 1668,-462 1674,-468 1674,-474 1674,-474 1674,-486 1674,-486 1674,-492 1668,-498 1662,-498" fill="none" stroke="black"></path>
</g>
<!-- node125 -->
<g class="node" id="node125">
<title>node125</title>
<path d="M1842,-539C1842,-539 1812,-539 1812,-539 1806,-539 1800,-533 1800,-527 1800,-527 1800,-515 1800,-515 1800,-509 1806,-503 1812,-503 1812,-503 1842,-503 1842,-503 1848,-503 1854,-509 1854,-515 1854,-515 1854,-527 1854,-527 1854,-533 1848,-539 1842,-539" fill="none" stroke="black"></path>
</g>
<!-- node126 -->
<g class="node" id="node126">
<title>node126</title>
<path d="M2022,-616C2022,-616 1992,-616 1992,-616 1986,-616 1980,-610 1980,-604 1980,-604 1980,-592 1980,-592 1980,-586 1986,-580 1992,-580 1992,-580 2022,-580 2022,-580 2028,-580 2034,-586 2034,-592 2034,-592 2034,-604 2034,-604 2034,-610 2028,-616 2022,-616" fill="none" stroke="black"></path>
</g>
<!-- node127 -->
<g class="node" id="node127">
<title>node127</title>
<path d="M2022,-562C2022,-562 1992,-562 1992,-562 1986,-562 1980,-556 1980,-550 1980,-550 1980,-538 1980,-538 1980,-532 1986,-526 1992,-526 1992,-526 2022,-526 2022,-526 2028,-526 2034,-532 2034,-538 2034,-538 2034,-550 2034,-550 2034,-556 2028,-562 2022,-562" fill="none" stroke="black"></path>
</g>
<!-- node128 -->
<g class="node" id="node128">
<title>node128</title>
<ellipse cx="1917" cy="-544" fill="green" rx="27" ry="18" stroke="black"></ellipse>
</g>
<!-- node128&#45;&gt;node126 -->
<g class="edge" id="edge110">
<title>node128-&gt;node126</title>
<path d="M1937.53,-555.98C1949.99,-563.63 1966.28,-573.63 1979.85,-581.95" fill="none" stroke="black"></path>
</g>
<!-- node128&#45;&gt;node127 -->
<g class="edge" id="edge111">
<title>node128-&gt;node127</title>
<path d="M1944.4,-544C1955.64,-544 1968.72,-544 1979.92,-544" fill="none" stroke="black"></path>
</g>
<!-- node129 -->
<g class="node" id="node129">
<title>node129</title>
<path d="M2022,-508C2022,-508 1992,-508 1992,-508 1986,-508 1980,-502 1980,-496 1980,-496 1980,-484 1980,-484 1980,-478 1986,-472 1992,-472 1992,-472 2022,-472 2022,-472 2028,-472 2034,-478 2034,-484 2034,-484 2034,-496 2034,-496 2034,-502 2028,-508 2022,-508" fill="none" stroke="black"></path>
</g>
<!-- node130 -->
<g class="node" id="node130">
<title>node130</title>
<path d="M2202,-549C2202,-549 2172,-549 2172,-549 2166,-549 2160,-543 2160,-537 2160,-537 2160,-525 2160,-525 2160,-519 2166,-513 2172,-513 2172,-513 2202,-513 2202,-513 2208,-513 2214,-519 2214,-525 2214,-525 2214,-537 2214,-537 2214,-543 2208,-549 2202,-549" fill="none" stroke="black"></path>
</g>
<!-- node131 -->
<g class="node" id="node131">
<title>node131</title>
<path d="M2202,-495C2202,-495 2172,-495 2172,-495 2166,-495 2160,-489 2160,-483 2160,-483 2160,-471 2160,-471 2160,-465 2166,-459 2172,-459 2172,-459 2202,-459 2202,-459 2208,-459 2214,-465 2214,-471 2214,-471 2214,-483 2214,-483 2214,-489 2208,-495 2202,-495" fill="none" stroke="black"></path>
</g>
<!-- node132 -->
<g class="node" id="node132">
<title>node132</title>
<ellipse cx="2097" cy="-477" fill="green" rx="27" ry="18" stroke="black"></ellipse>
</g>
<!-- node132&#45;&gt;node130 -->
<g class="edge" id="edge112">
<title>node132-&gt;node130</title>
<path d="M2117.53,-488.98C2129.99,-496.63 2146.28,-506.63 2159.85,-514.95" fill="none" stroke="black"></path>
</g>
<!-- node132&#45;&gt;node131 -->
<g class="edge" id="edge113">
<title>node132-&gt;node131</title>
<path d="M2124.4,-477C2135.64,-477 2148.72,-477 2159.92,-477" fill="none" stroke="black"></path>
</g>
<!-- node133 -->
<g class="node" id="node133">
<title>node133</title>
<path d="M2202,-441C2202,-441 2172,-441 2172,-441 2166,-441 2160,-435 2160,-429 2160,-429 2160,-417 2160,-417 2160,-411 2166,-405 2172,-405 2172,-405 2202,-405 2202,-405 2208,-405 2214,-411 2214,-417 2214,-417 2214,-429 2214,-429 2214,-435 2208,-441 2202,-441" fill="none" stroke="black"></path>
</g>
<!-- node134 -->
<g class="node" id="node134">
<title>node134</title>
<path d="M2202,-387C2202,-387 2172,-387 2172,-387 2166,-387 2160,-381 2160,-375 2160,-375 2160,-363 2160,-363 2160,-357 2166,-351 2172,-351 2172,-351 2202,-351 2202,-351 2208,-351 2214,-357 2214,-363 2214,-363 2214,-375 2214,-375 2214,-381 2208,-387 2202,-387" fill="none" stroke="black"></path>
</g>
<!-- node135 -->
<g class="node" id="node135">
<title>node135</title>
<ellipse cx="2097" cy="-423" fill="yellow" rx="27" ry="18" stroke="black"></ellipse>
</g>
<!-- node135&#45;&gt;node133 -->
<g class="edge" id="edge114">
<title>node135-&gt;node133</title>
<path d="M2124.4,-423C2135.64,-423 2148.72,-423 2159.92,-423" fill="none" stroke="black"></path>
</g>
<!-- node135&#45;&gt;node134 -->
<g class="edge" id="edge115">
<title>node135-&gt;node134</title>
<path d="M2117.53,-411.02C2129.99,-403.37 2146.28,-393.37 2159.85,-385.05" fill="none" stroke="black"></path>
</g>
<!-- node136 -->
<g class="node" id="node136">
<title>node136</title>
<ellipse cx="2007" cy="-436" fill="yellow" rx="27" ry="18" stroke="black"></ellipse>
</g>
<!-- node136&#45;&gt;node132 -->
<g class="edge" id="edge116">
<title>node136-&gt;node132</title>
<path d="M2029.75,-446.13C2043.39,-452.49 2060.9,-460.65 2074.5,-466.98" fill="none" stroke="black"></path>
</g>
<!-- node136&#45;&gt;node135 -->
<g class="edge" id="edge117">
<title>node136-&gt;node135</title>
<path d="M2033.45,-432.24C2045.03,-430.53 2058.7,-428.51 2070.3,-426.8" fill="none" stroke="black"></path>
</g>
<!-- node137 -->
<g class="node" id="node137">
<title>node137</title>
<ellipse cx="1917" cy="-467" fill="yellow" rx="27" ry="18" stroke="black"></ellipse>
</g>
<!-- node137&#45;&gt;node129 -->
<g class="edge" id="edge118">
<title>node137-&gt;node129</title>
<path d="M1942.51,-473.41C1954.11,-476.44 1967.97,-480.06 1979.77,-483.14" fill="none" stroke="black"></path>
</g>
<!-- node137&#45;&gt;node136 -->
<g class="edge" id="edge119">
<title>node137-&gt;node136</title>
<path d="M1941.12,-458.86C1953.95,-454.33 1969.87,-448.73 1982.73,-444.2" fill="none" stroke="black"></path>
</g>
<!-- node138 -->
<g class="node" id="node138">
<title>node138</title>
<ellipse cx="1827" cy="-467" fill="yellow" rx="27" ry="18" stroke="black"></ellipse>
</g>
<!-- node138&#45;&gt;node128 -->
<g class="edge" id="edge120">
<title>node138-&gt;node128</title>
<path d="M1844.14,-481.12C1860.02,-495.02 1884.12,-516.1 1899.96,-529.97" fill="none" stroke="black"></path>
</g>
<!-- node138&#45;&gt;node137 -->
<g class="edge" id="edge121">
<title>node138-&gt;node137</title>
<path d="M1854.4,-467C1865.64,-467 1878.72,-467 1889.92,-467" fill="none" stroke="black"></path>
</g>
<!-- node139 -->
<g class="node" id="node139">
<title>node139</title>
<ellipse cx="1737" cy="-467" fill="green" rx="27" ry="18" stroke="black"></ellipse>
</g>
<!-- node139&#45;&gt;node125 -->
<g class="edge" id="edge122">
<title>node139-&gt;node125</title>
<path d="M1757.53,-478.98C1769.99,-486.63 1786.28,-496.63 1799.85,-504.95" fill="none" stroke="black"></path>
</g>
<!-- node139&#45;&gt;node138 -->
<g class="edge" id="edge123">
<title>node139-&gt;node138</title>
<path d="M1764.4,-467C1775.64,-467 1788.72,-467 1799.92,-467" fill="none" stroke="black"></path>
</g>
<!-- node140 -->
<g class="node" id="node140">
<title>node140</title>
<path d="M1842,-431C1842,-431 1812,-431 1812,-431 1806,-431 1800,-425 1800,-419 1800,-419 1800,-407 1800,-407 1800,-401 1806,-395 1812,-395 1812,-395 1842,-395 1842,-395 1848,-395 1854,-401 1854,-407 1854,-407 1854,-419 1854,-419 1854,-425 1848,-431 1842,-431" fill="none" stroke="black"></path>
</g>
<!-- node141 -->
<g class="node" id="node141">
<title>node141</title>
<path d="M2022,-400C2022,-400 1992,-400 1992,-400 1986,-400 1980,-394 1980,-388 1980,-388 1980,-376 1980,-376 1980,-370 1986,-364 1992,-364 1992,-364 2022,-364 2022,-364 2028,-364 2034,-370 2034,-376 2034,-376 2034,-388 2034,-388 2034,-394 2028,-400 2022,-400" fill="none" stroke="black"></path>
</g>
<!-- node142 -->
<g class="node" id="node142">
<title>node142</title>
<path d="M2022,-346C2022,-346 1992,-346 1992,-346 1986,-346 1980,-340 1980,-334 1980,-334 1980,-322 1980,-322 1980,-316 1986,-310 1992,-310 1992,-310 2022,-310 2022,-310 2028,-310 2034,-316 2034,-322 2034,-322 2034,-334 2034,-334 2034,-340 2028,-346 2022,-346" fill="none" stroke="black"></path>
</g>
<!-- node143 -->
<g class="node" id="node143">
<title>node143</title>
<ellipse cx="1917" cy="-355" fill="green" rx="27" ry="18" stroke="black"></ellipse>
</g>
<!-- node143&#45;&gt;node141 -->
<g class="edge" id="edge124">
<title>node143-&gt;node141</title>
<path d="M1942.05,-362.38C1953.75,-365.97 1967.85,-370.29 1979.82,-373.97" fill="none" stroke="black"></path>
</g>
<!-- node143&#45;&gt;node142 -->
<g class="edge" id="edge125">
<title>node143-&gt;node142</title>
<path d="M1942.05,-347.62C1953.75,-344.03 1967.85,-339.71 1979.82,-336.03" fill="none" stroke="black"></path>
</g>
<!-- node144 -->
<g class="node" id="node144">
<title>node144</title>
<path d="M2022,-292C2022,-292 1992,-292 1992,-292 1986,-292 1980,-286 1980,-280 1980,-280 1980,-268 1980,-268 1980,-262 1986,-256 1992,-256 1992,-256 2022,-256 2022,-256 2028,-256 2034,-262 2034,-268 2034,-268 2034,-280 2034,-280 2034,-286 2028,-292 2022,-292" fill="none" stroke="black"></path>
</g>
<!-- node145 -->
<g class="node" id="node145">
<title>node145</title>
<path d="M2202,-306C2202,-306 2172,-306 2172,-306 2166,-306 2160,-300 2160,-294 2160,-294 2160,-282 2160,-282 2160,-276 2166,-270 2172,-270 2172,-270 2202,-270 2202,-270 2208,-270 2214,-276 2214,-282 2214,-282 2214,-294 2214,-294 2214,-300 2208,-306 2202,-306" fill="none" stroke="black"></path>
</g>
<!-- node146 -->
<g class="node" id="node146">
<title>node146</title>
<path d="M2202,-252C2202,-252 2172,-252 2172,-252 2166,-252 2160,-246 2160,-240 2160,-240 2160,-228 2160,-228 2160,-222 2166,-216 2172,-216 2172,-216 2202,-216 2202,-216 2208,-216 2214,-222 2214,-228 2214,-228 2214,-240 2214,-240 2214,-246 2208,-252 2202,-252" fill="blue" stroke="black"></path>
</g>
<!-- node147 -->
<g class="node" id="node147">
<title>node147</title>
<ellipse cx="2097" cy="-234" fill="green" rx="27" ry="18" stroke="black"></ellipse>
</g>
<!-- node147&#45;&gt;node145 -->
<g class="edge" id="edge126">
<title>node147-&gt;node145</title>
<path d="M2117.53,-245.98C2129.99,-253.63 2146.28,-263.63 2159.85,-271.95" fill="none" stroke="black"></path>
</g>
<!-- node147&#45;&gt;node146 -->
<g class="edge" id="edge127">
<title>node147-&gt;node146</title>
<path d="M2124.4,-234C2135.64,-234 2148.72,-234 2159.92,-234" fill="none" stroke="black"></path>
</g>
<!-- node148 -->
<g class="node" id="node148">
<title>node148</title>
<path d="M2202,-198C2202,-198 2172,-198 2172,-198 2166,-198 2160,-192 2160,-186 2160,-186 2160,-174 2160,-174 2160,-168 2166,-162 2172,-162 2172,-162 2202,-162 2202,-162 2208,-162 2214,-168 2214,-174 2214,-174 2214,-186 2214,-186 2214,-192 2208,-198 2202,-198" fill="none" stroke="black"></path>
</g>
<!-- node149 -->
<g class="node" id="node149">
<title>node149</title>
<path d="M2382,-225C2382,-225 2352,-225 2352,-225 2346,-225 2340,-219 2340,-213 2340,-213 2340,-201 2340,-201 2340,-195 2346,-189 2352,-189 2352,-189 2382,-189 2382,-189 2388,-189 2394,-195 2394,-201 2394,-201 2394,-213 2394,-213 2394,-219 2388,-225 2382,-225" fill="none" stroke="black"></path>
</g>
<!-- node150 -->
<g class="node" id="node150">
<title>node150</title>
<path d="M2382,-171C2382,-171 2352,-171 2352,-171 2346,-171 2340,-165 2340,-159 2340,-159 2340,-147 2340,-147 2340,-141 2346,-135 2352,-135 2352,-135 2382,-135 2382,-135 2388,-135 2394,-141 2394,-147 2394,-147 2394,-159 2394,-159 2394,-165 2388,-171 2382,-171" fill="none" stroke="black"></path>
</g>
<!-- node151 -->
<g class="node" id="node151">
<title>node151</title>
<ellipse cx="2277" cy="-153" fill="green" rx="27" ry="18" stroke="black"></ellipse>
</g>
<!-- node151&#45;&gt;node149 -->
<g class="edge" id="edge128">
<title>node151-&gt;node149</title>
<path d="M2297.53,-164.98C2309.99,-172.63 2326.28,-182.63 2339.85,-190.95" fill="none" stroke="black"></path>
</g>
<!-- node151&#45;&gt;node150 -->
<g class="edge" id="edge129">
<title>node151-&gt;node150</title>
<path d="M2304.4,-153C2315.64,-153 2328.72,-153 2339.92,-153" fill="none" stroke="black"></path>
</g>
<!-- node152 -->
<g class="node" id="node152">
<title>node152</title>
<path d="M2382,-117C2382,-117 2352,-117 2352,-117 2346,-117 2340,-111 2340,-105 2340,-105 2340,-93 2340,-93 2340,-87 2346,-81 2352,-81 2352,-81 2382,-81 2382,-81 2388,-81 2394,-87 2394,-93 2394,-93 2394,-105 2394,-105 2394,-111 2388,-117 2382,-117" fill="none" stroke="black"></path>
</g>
<!-- node153 -->
<g class="node" id="node153">
<title>node153</title>
<path d="M2472,-90C2472,-90 2442,-90 2442,-90 2436,-90 2430,-84 2430,-78 2430,-78 2430,-66 2430,-66 2430,-60 2436,-54 2442,-54 2442,-54 2472,-54 2472,-54 2478,-54 2484,-60 2484,-66 2484,-66 2484,-78 2484,-78 2484,-84 2478,-90 2472,-90" fill="none" stroke="black"></path>
</g>
<!-- node154 -->
<g class="node" id="node154">
<title>node154</title>
<path d="M2472,-36C2472,-36 2442,-36 2442,-36 2436,-36 2430,-30 2430,-24 2430,-24 2430,-12 2430,-12 2430,-6 2436,0 2442,0 2442,0 2472,0 2472,0 2478,0 2484,-6 2484,-12 2484,-12 2484,-24 2484,-24 2484,-30 2478,-36 2472,-36" fill="blue" stroke="black"></path>
</g>
<!-- node155 -->
<g class="node" id="node155">
<title>node155</title>
<ellipse cx="2367" cy="-45" fill="green" rx="27" ry="18" stroke="black"></ellipse>
</g>
<!-- node155&#45;&gt;node153 -->
<g class="edge" id="edge130">
<title>node155-&gt;node153</title>
<path d="M2392.05,-52.38C2403.75,-55.97 2417.85,-60.29 2429.82,-63.97" fill="none" stroke="black"></path>
</g>
<!-- node155&#45;&gt;node154 -->
<g class="edge" id="edge131">
<title>node155-&gt;node154</title>
<path d="M2392.05,-37.62C2403.75,-34.03 2417.85,-29.71 2429.82,-26.03" fill="none" stroke="black"></path>
</g>
<!-- node156 -->
<g class="node" id="node156">
<title>node156</title>
<ellipse cx="2277" cy="-99" fill="yellow" rx="27" ry="18" stroke="black"></ellipse>
</g>
<!-- node156&#45;&gt;node152 -->
<g class="edge" id="edge132">
<title>node156-&gt;node152</title>
<path d="M2304.4,-99C2315.64,-99 2328.72,-99 2339.92,-99" fill="none" stroke="black"></path>
</g>
<!-- node156&#45;&gt;node155 -->
<g class="edge" id="edge133">
<title>node156-&gt;node155</title>
<path d="M2297.53,-87.02C2312.11,-78.07 2331.95,-65.89 2346.52,-56.95" fill="none" stroke="black"></path>
</g>
<!-- node157 -->
<g class="node" id="node157">
<title>node157</title>
<ellipse cx="2187" cy="-126" fill="yellow" rx="27" ry="18" stroke="black"></ellipse>
</g>
<!-- node157&#45;&gt;node151 -->
<g class="edge" id="edge134">
<title>node157-&gt;node151</title>
<path d="M2212.05,-133.38C2224.57,-137.22 2239.82,-141.9 2252.29,-145.72" fill="none" stroke="black"></path>
</g>
<!-- node157&#45;&gt;node156 -->
<g class="edge" id="edge135">
<title>node157-&gt;node156</title>
<path d="M2212.05,-118.62C2224.57,-114.78 2239.82,-110.1 2252.29,-106.28" fill="none" stroke="black"></path>
</g>
<!-- node158 -->
<g class="node" id="node158">
<title>node158</title>
<ellipse cx="2097" cy="-180" fill="yellow" rx="27" ry="18" stroke="black"></ellipse>
</g>
<!-- node158&#45;&gt;node148 -->
<g class="edge" id="edge136">
<title>node158-&gt;node148</title>
<path d="M2124.4,-180C2135.64,-180 2148.72,-180 2159.92,-180" fill="none" stroke="black"></path>
</g>
<!-- node158&#45;&gt;node157 -->
<g class="edge" id="edge137">
<title>node158-&gt;node157</title>
<path d="M2117.53,-168.02C2132.11,-159.07 2151.95,-146.89 2166.52,-137.95" fill="none" stroke="black"></path>
</g>
<!-- node159 -->
<g class="node" id="node159">
<title>node159</title>
<ellipse cx="2007" cy="-220" fill="yellow" rx="27" ry="18" stroke="black"></ellipse>
</g>
<!-- node159&#45;&gt;node147 -->
<g class="edge" id="edge138">
<title>node159-&gt;node147</title>
<path d="M2033.45,-224.05C2045.13,-225.91 2058.94,-228.1 2070.6,-229.96" fill="none" stroke="black"></path>
</g>
<!-- node159&#45;&gt;node158 -->
<g class="edge" id="edge139">
<title>node159-&gt;node158</title>
<path d="M2029.75,-210.11C2043.29,-203.96 2060.64,-196.07 2074.19,-189.91" fill="none" stroke="black"></path>
</g>
<!-- node160 -->
<g class="node" id="node160">
<title>node160</title>
<ellipse cx="1917" cy="-274" fill="yellow" rx="27" ry="18" stroke="black"></ellipse>
</g>
<!-- node160&#45;&gt;node144 -->
<g class="edge" id="edge140">
<title>node160-&gt;node144</title>
<path d="M1944.4,-274C1955.64,-274 1968.72,-274 1979.92,-274" fill="none" stroke="black"></path>
</g>
<!-- node160&#45;&gt;node159 -->
<g class="edge" id="edge141">
<title>node160-&gt;node159</title>
<path d="M1937.53,-262.02C1952.11,-253.07 1971.95,-240.89 1986.52,-231.95" fill="none" stroke="black"></path>
</g>
<!-- node161 -->
<g class="node" id="node161">
<title>node161</title>
<ellipse cx="1827" cy="-355" fill="yellow" rx="27" ry="18" stroke="black"></ellipse>
</g>
<!-- node161&#45;&gt;node143 -->
<g class="edge" id="edge142">
<title>node161-&gt;node143</title>
<path d="M1854.4,-355C1865.64,-355 1878.72,-355 1889.92,-355" fill="none" stroke="black"></path>
</g>
<!-- node161&#45;&gt;node160 -->
<g class="edge" id="edge143">
<title>node161-&gt;node160</title>
<path d="M1843.73,-340.52C1859.75,-325.78 1884.44,-303.05 1900.4,-288.36" fill="none" stroke="black"></path>
</g>
<!-- node162 -->
<g class="node" id="node162">
<title>node162</title>
<ellipse cx="1737" cy="-413" fill="yellow" rx="27" ry="18" stroke="black"></ellipse>
</g>
<!-- node162&#45;&gt;node140 -->
<g class="edge" id="edge144">
<title>node162-&gt;node140</title>
<path d="M1764.4,-413C1775.64,-413 1788.72,-413 1799.92,-413" fill="none" stroke="black"></path>
</g>
<!-- node162&#45;&gt;node161 -->
<g class="edge" id="edge145">
<title>node162-&gt;node161</title>
<path d="M1757.09,-400.41C1771.96,-390.62 1792.47,-377.1 1807.24,-367.36" fill="none" stroke="black"></path>
</g>
<!-- node163 -->
<g class="node" id="node163">
<title>node163</title>
<ellipse cx="1647" cy="-426" fill="yellow" rx="27" ry="18" stroke="black"></ellipse>
</g>
<!-- node163&#45;&gt;node139 -->
<g class="edge" id="edge146">
<title>node163-&gt;node139</title>
<path d="M1669.75,-436.13C1683.39,-442.49 1700.9,-450.65 1714.5,-456.98" fill="none" stroke="black"></path>
</g>
<!-- node163&#45;&gt;node162 -->
<g class="edge" id="edge147">
<title>node163-&gt;node162</title>
<path d="M1673.45,-422.24C1685.03,-420.53 1698.7,-418.51 1710.3,-416.8" fill="none" stroke="black"></path>
</g>
<!-- node164 -->
<g class="node" id="node164">
<title>node164</title>
<ellipse cx="1557" cy="-480" fill="yellow" rx="27" ry="18" stroke="black"></ellipse>
</g>
<!-- node164&#45;&gt;node124 -->
<g class="edge" id="edge148">
<title>node164-&gt;node124</title>
<path d="M1584.4,-480C1595.64,-480 1608.72,-480 1619.92,-480" fill="none" stroke="black"></path>
</g>
<!-- node164&#45;&gt;node163 -->
<g class="edge" id="edge149">
<title>node164-&gt;node163</title>
<path d="M1577.53,-468.02C1592.11,-459.07 1611.95,-446.89 1626.52,-437.95" fill="none" stroke="black"></path>
</g>
<!-- node165 -->
<g class="node" id="node165">
<title>node165</title>
<ellipse cx="1467" cy="-480" fill="yellow" rx="27" ry="18" stroke="black"></ellipse>
</g>
<!-- node165&#45;&gt;node123 -->
<g class="edge" id="edge150">
<title>node165-&gt;node123</title>
<path d="M1487.53,-491.98C1502.11,-500.93 1521.95,-513.11 1536.52,-522.05" fill="none" stroke="black"></path>
</g>
<!-- node165&#45;&gt;node164 -->
<g class="edge" id="edge151">
<title>node165-&gt;node164</title>
<path d="M1494.4,-480C1505.64,-480 1518.72,-480 1529.92,-480" fill="none" stroke="black"></path>
</g>
<!-- node166 -->
<g class="node" id="node166">
<title>node166</title>
<ellipse cx="1377" cy="-534" fill="yellow" rx="27" ry="18" stroke="black"></ellipse>
</g>
<!-- node166&#45;&gt;node120 -->
<g class="edge" id="edge152">
<title>node166-&gt;node120</title>
<path d="M1404.4,-534C1415.64,-534 1428.72,-534 1439.92,-534" fill="none" stroke="black"></path>
</g>
<!-- node166&#45;&gt;node165 -->
<g class="edge" id="edge153">
<title>node166-&gt;node165</title>
<path d="M1397.53,-522.02C1412.11,-513.07 1431.95,-500.89 1446.52,-491.95" fill="none" stroke="black"></path>
</g>
<!-- node167 -->
<g class="node" id="node167">
<title>node167</title>
<ellipse cx="1287" cy="-561" fill="yellow" rx="27" ry="18" stroke="black"></ellipse>
</g>
<!-- node167&#45;&gt;node119 -->
<g class="edge" id="edge154">
<title>node167-&gt;node119</title>
<path d="M1312.05,-568.38C1324.57,-572.22 1339.82,-576.9 1352.29,-580.72" fill="none" stroke="black"></path>
</g>
<!-- node167&#45;&gt;node166 -->
<g class="edge" id="edge155">
<title>node167-&gt;node166</title>
<path d="M1312.05,-553.62C1324.57,-549.78 1339.82,-545.1 1352.29,-541.28" fill="none" stroke="black"></path>
</g>
<!-- node168 -->
<g class="node" id="node168">
<title>node168</title>
<ellipse cx="1197" cy="-615" fill="yellow" rx="27" ry="18" stroke="black"></ellipse>
</g>
<!-- node168&#45;&gt;node116 -->
<g class="edge" id="edge156">
<title>node168-&gt;node116</title>
<path d="M1224.4,-615C1235.64,-615 1248.72,-615 1259.92,-615" fill="none" stroke="black"></path>
</g>
<!-- node168&#45;&gt;node167 -->
<g class="edge" id="edge157">
<title>node168-&gt;node167</title>
<path d="M1217.53,-603.02C1232.11,-594.07 1251.95,-581.89 1266.52,-572.95" fill="none" stroke="black"></path>
</g>
<!-- node169 -->
<g class="node" id="node169">
<title>node169</title>
<ellipse cx="1107" cy="-615" fill="yellow" rx="27" ry="18" stroke="black"></ellipse>
</g>
<!-- node169&#45;&gt;node115 -->
<g class="edge" id="edge158">
<title>node169-&gt;node115</title>
<path d="M1127.53,-626.98C1142.11,-635.93 1161.95,-648.11 1176.52,-657.05" fill="none" stroke="black"></path>
</g>
<!-- node169&#45;&gt;node168 -->
<g class="edge" id="edge159">
<title>node169-&gt;node168</title>
<path d="M1134.4,-615C1145.64,-615 1158.72,-615 1169.92,-615" fill="none" stroke="black"></path>
</g>
<!-- node170 -->
<g class="node" id="node170">
<title>node170</title>
<ellipse cx="1017" cy="-669" fill="yellow" rx="27" ry="18" stroke="black"></ellipse>
</g>
<!-- node170&#45;&gt;node112 -->
<g class="edge" id="edge160">
<title>node170-&gt;node112</title>
<path d="M1044.4,-669C1055.64,-669 1068.72,-669 1079.92,-669" fill="none" stroke="black"></path>
</g>
<!-- node170&#45;&gt;node169 -->
<g class="edge" id="edge161">
<title>node170-&gt;node169</title>
<path d="M1037.53,-657.02C1052.11,-648.07 1071.95,-635.89 1086.52,-626.95" fill="none" stroke="black"></path>
</g>
<!-- node171 -->
<g class="node" id="node171">
<title>node171</title>
<ellipse cx="927" cy="-669" fill="yellow" rx="27" ry="18" stroke="black"></ellipse>
</g>
<!-- node171&#45;&gt;node111 -->
<g class="edge" id="edge162">
<title>node171-&gt;node111</title>
<path d="M947.53,-680.98C962.11,-689.93 981.95,-702.11 996.52,-711.05" fill="none" stroke="black"></path>
</g>
<!-- node171&#45;&gt;node170 -->
<g class="edge" id="edge163">
<title>node171-&gt;node170</title>
<path d="M954.4,-669C965.64,-669 978.72,-669 989.92,-669" fill="none" stroke="black"></path>
</g>
<!-- node172 -->
<g class="node" id="node172">
<title>node172</title>
<ellipse cx="837" cy="-723" fill="yellow" rx="27" ry="18" stroke="black"></ellipse>
</g>
<!-- node172&#45;&gt;node108 -->
<g class="edge" id="edge164">
<title>node172-&gt;node108</title>
<path d="M864.4,-723C875.64,-723 888.72,-723 899.92,-723" fill="none" stroke="black"></path>
</g>
<!-- node172&#45;&gt;node171 -->
<g class="edge" id="edge165">
<title>node172-&gt;node171</title>
<path d="M857.53,-711.02C872.11,-702.07 891.95,-689.89 906.52,-680.95" fill="none" stroke="black"></path>
</g>
<!-- node173 -->
<g class="node" id="node173">
<title>node173</title>
<ellipse cx="747" cy="-804" fill="yellow" rx="27" ry="18" stroke="black"></ellipse>
</g>
<!-- node173&#45;&gt;node107 -->
<g class="edge" id="edge166">
<title>node173-&gt;node107</title>
<path d="M774.4,-804C785.64,-804 798.72,-804 809.92,-804" fill="none" stroke="black"></path>
</g>
<!-- node173&#45;&gt;node172 -->
<g class="edge" id="edge167">
<title>node173-&gt;node172</title>
<path d="M763.73,-789.52C779.75,-774.78 804.44,-752.05 820.4,-737.36" fill="none" stroke="black"></path>
</g>
<!-- node174 -->
<g class="node" id="node174">
<title>node174</title>
<ellipse cx="657" cy="-858" fill="yellow" rx="27" ry="18" stroke="black"></ellipse>
</g>
<!-- node174&#45;&gt;node104 -->
<g class="edge" id="edge168">
<title>node174-&gt;node104</title>
<path d="M684.4,-858C695.64,-858 708.72,-858 719.92,-858" fill="none" stroke="black"></path>
</g>
<!-- node174&#45;&gt;node173 -->
<g class="edge" id="edge169">
<title>node174-&gt;node173</title>
<path d="M677.53,-846.02C692.11,-837.07 711.95,-824.89 726.52,-815.95" fill="none" stroke="black"></path>
</g>
<!-- node175 -->
<g class="node" id="node175">
<title>node175</title>
<ellipse cx="567" cy="-885" fill="yellow" rx="27" ry="18" stroke="black"></ellipse>
</g>
<!-- node175&#45;&gt;node103 -->
<g class="edge" id="edge170">
<title>node175-&gt;node103</title>
<path d="M592.05,-892.38C604.57,-896.22 619.82,-900.9 632.29,-904.72" fill="none" stroke="black"></path>
</g>
<!-- node175&#45;&gt;node174 -->
<g class="edge" id="edge171">
<title>node175-&gt;node174</title>
<path d="M592.05,-877.62C604.57,-873.78 619.82,-869.1 632.29,-865.28" fill="none" stroke="black"></path>
</g>
<!-- node176 -->
<g class="node" id="node176">
<title>node176</title>
<ellipse cx="477" cy="-939" fill="yellow" rx="27" ry="18" stroke="black"></ellipse>
</g>
<!-- node176&#45;&gt;node6 -->
<g class="edge" id="edge172">
<title>node176-&gt;node6</title>
<path d="M504.4,-939C515.64,-939 528.72,-939 539.92,-939" fill="none" stroke="black"></path>
</g>
<!-- node176&#45;&gt;node175 -->
<g class="edge" id="edge173">
<title>node176-&gt;node175</title>
<path d="M497.53,-927.02C512.11,-918.07 531.95,-905.89 546.52,-896.95" fill="none" stroke="black"></path>
</g>
<!-- node177 -->
<g class="node" id="node177">
<title>node177</title>
<ellipse cx="387" cy="-966" fill="yellow" rx="27" ry="18" stroke="black"></ellipse>
</g>
<!-- node177&#45;&gt;node5 -->
<g class="edge" id="edge174">
<title>node177-&gt;node5</title>
<path d="M412.05,-973.38C424.57,-977.22 439.82,-981.9 452.29,-985.72" fill="none" stroke="black"></path>
</g>
<!-- node177&#45;&gt;node176 -->
<g class="edge" id="edge175">
<title>node177-&gt;node176</title>
<path d="M412.05,-958.62C424.57,-954.78 439.82,-950.1 452.29,-946.28" fill="none" stroke="black"></path>
</g>
<!-- node178 -->
<g class="node" id="node178">
<title>node178</title>
<ellipse cx="297" cy="-993" fill="yellow" rx="27" ry="18" stroke="black"></ellipse>
</g>
<!-- node178&#45;&gt;node2 -->
<g class="edge" id="edge176">
<title>node178-&gt;node2</title>
<path d="M322.05,-1000.38C333.75,-1003.97 347.85,-1008.29 359.82,-1011.97" fill="none" stroke="black"></path>
</g>
<!-- node178&#45;&gt;node177 -->
<g class="edge" id="edge177">
<title>node178-&gt;node177</title>
<path d="M322.05,-985.62C334.57,-981.78 349.82,-977.1 362.29,-973.28" fill="none" stroke="black"></path>
</g>
<!-- node179 -->
<g class="node" id="node179">
<title>node179</title>
<path d="M312,-957C312,-957 282,-957 282,-957 276,-957 270,-951 270,-945 270,-945 270,-933 270,-933 270,-927 276,-921 282,-921 282,-921 312,-921 312,-921 318,-921 324,-927 324,-933 324,-933 324,-945 324,-945 324,-951 318,-957 312,-957" fill="none" stroke="black"></path>
</g>
<!-- node180&#45;&gt;node178 -->
<g class="edge" id="edge178">
<title>node180-&gt;node178</title>
<path d="M232.05,-973.38C244.57,-977.22 259.82,-981.9 272.29,-985.72" fill="none" stroke="black"></path>
</g>
<!-- node180&#45;&gt;node179 -->
<g class="edge" id="edge179">
<title>node180-&gt;node179</title>
<path d="M232.05,-958.62C243.75,-955.03 257.85,-950.71 269.82,-947.03" fill="none" stroke="black"></path>
</g>
<!-- node181 -->
<g class="node" id="node181">
<title>node181</title>
</g>
<!-- node181&#45;&gt;node1 -->
<g class="edge" id="edge180">
<title>node181-&gt;node1</title>
<path d="M54.4,-966C65.64,-966 78.72,-966 89.92,-966" fill="none" stroke="black"></path>
</g>
</g>
</svg>