<?xml version="1.0" encoding="UTF-8" standalone="no"?>
<!DOCTYPE svg PUBLIC "-//W3C//DTD SVG 1.1//EN" "http://www.w3.org/Graphics/SVG/1.1/DTD/svg11.dtd">

<!-- Generated by graphviz version 2.43.0 (0)
 -->
<!-- Title: G Pages: 1 -->
<svg height="116pt" viewbox="0.00 0.00 62.00 116.00" width="62pt" xmlns="http://www.w3.org/2000/svg" xmlns:xlink="http://www.w3.org/1999/xlink">
<g class="graph" id="graph0" transform="scale(1 1) rotate(0) translate(4 112)">
<title>G</title>
<polygon fill="white" points="-4,4 -4,-112 58,-112 58,4 -4,4" stroke="transparent"></polygon>
<!-- node1 -->
<g class="node" id="node1">
<title>node1</title>
<path d="M42,-36C42,-36 12,-36 12,-36 6,-36 0,-30 0,-24 0,-24 0,-12 0,-12 0,-6 6,0 12,0 12,0 42,0 42,0 48,0 54,-6 54,-12 54,-12 54,-24 54,-24 54,-30 48,-36 42,-36" fill="none" stroke="black"></path>
</g>
<!-- node2 -->
<g class="node" id="node2">
<title>node2</title>
</g>
<!-- node2&#45;&gt;node1 -->
<g class="edge" id="edge1">
<title>node2-&gt;node1</title>
<path d="M27,-71.7C27,-60.85 27,-46.92 27,-36.1" fill="none" stroke="black"></path>
</g>
</g>
</svg>