<?xml version="1.0" encoding="UTF-8" standalone="no"?>
<!DOCTYPE svg PUBLIC "-//W3C//DTD SVG 1.1//EN" "http://www.w3.org/Graphics/SVG/1.1/DTD/svg11.dtd">

<!-- Generated by graphviz version 2.43.0 (0)
 -->
<!-- Title: G Pages: 1 -->
<svg height="69pt" viewbox="0.00 0.00 1084.00 68.50" width="1084pt" xmlns="http://www.w3.org/2000/svg" xmlns:xlink="http://www.w3.org/1999/xlink">
<g class="graph" id="graph0" transform="scale(1 1) rotate(0) translate(4 64.5)">
<title>G</title>
<polygon fill="white" points="-4,4 -4,-64.5 1080,-64.5 1080,4 -4,4" stroke="transparent"></polygon>
<!-- node1 -->
<g class="node" id="node1">
<title>node1</title>
</g>
<!-- node2 -->
<g class="node" id="node2">
<title>node2</title>
<path d="M687.53,-60.25C687.53,-60.25 532.21,-60.25 532.21,-60.25 526.21,-60.25 520.21,-54.25 520.21,-48.25 520.21,-48.25 520.21,-12.25 520.21,-12.25 520.21,-6.25 526.21,-0.25 532.21,-0.25 532.21,-0.25 687.53,-0.25 687.53,-0.25 693.53,-0.25 699.53,-6.25 699.53,-12.25 699.53,-12.25 699.53,-48.25 699.53,-48.25 699.53,-54.25 693.53,-60.25 687.53,-60.25" fill="none" stroke="black"></path>
<text font-family="STIX Two Math" font-size="14.00" text-anchor="middle" x="609.87" y="-45.3">CatalogueDP</text>
<text font-family="STIX Two Math" font-size="14.00" text-anchor="middle" x="609.87" y="-27.8"> h: f ⟼ Min { r_i | f_i ≽ f}</text>
<text font-family="STIX Two Math" font-size="14.00" text-anchor="middle" x="609.87" y="-10.3"> h*: r ⟼ Max { f_i | r_i ≼ f}</text>
</g>
<!-- node1&#45;&gt;node2 -->
<g class="edge" id="edge1">
<title>node1-&gt;node2</title>
<path d="M54.09,-30.25C135.1,-30.25 385.02,-30.25 520.08,-30.25" fill="none" stroke="black"></path>
<text font-family="STIX Two Math" font-size="14.00" text-anchor="middle" x="287.02" y="-36.55">PosetProduct(7: R[m/s],R[m/s²],R[m/s²],R[person/car],R[m],R[g],R[W])</text>
</g>
<!-- node3 -->
<g class="node" id="node3">
<title>node3</title>
</g>
<!-- node2&#45;&gt;node3 -->
<g class="edge" id="edge2">
<title>node2-&gt;node3</title>
<path d="M699.59,-30.25C800.66,-30.25 959.83,-30.25 1021.95,-30.25" fill="none" stroke="black"></path>
<text font-family="STIX Two Math" font-size="14.00" text-anchor="middle" x="860.85" y="-36.55">PosetProduct(4: R[CHF],R[CHF/m],R[g/m],R[])</text>
</g>
</g>
</svg>