<?xml version="1.0" encoding="UTF-8" standalone="no"?>
<!DOCTYPE svg PUBLIC "-//W3C//DTD SVG 1.1//EN" "http://www.w3.org/Graphics/SVG/1.1/DTD/svg11.dtd">

<!-- Generated by graphviz version 2.43.0 (0)
 -->
<!-- Title: G Pages: 1 -->
<svg height="248pt" viewbox="0.00 0.00 527.87 247.50" width="528pt" xmlns="http://www.w3.org/2000/svg" xmlns:xlink="http://www.w3.org/1999/xlink">
<g class="graph" id="graph0" transform="scale(1 1) rotate(0) translate(4 243.5)">
<title>G</title>
<polygon fill="white" points="-4,4 -4,-243.5 523.87,-243.5 523.87,4 -4,4" stroke="transparent"></polygon>
<!-- node1 -->
<g class="node" id="node1">
<title>node1</title>
</g>
<!-- node2 -->
<g class="node" id="node2">
<title>node2</title>
<path d="M167.49,-149.75C167.49,-149.75 12.17,-149.75 12.17,-149.75 6.17,-149.75 0.17,-143.75 0.17,-137.75 0.17,-137.75 0.17,-101.75 0.17,-101.75 0.17,-95.75 6.17,-89.75 12.17,-89.75 12.17,-89.75 167.49,-89.75 167.49,-89.75 173.49,-89.75 179.49,-95.75 179.49,-101.75 179.49,-101.75 179.49,-137.75 179.49,-137.75 179.49,-143.75 173.49,-149.75 167.49,-149.75" fill="none" stroke="black"></path>
<text font-family="STIX Two Math" font-size="14.00" text-anchor="middle" x="89.83" y="-134.8">CatalogueDP</text>
<text font-family="STIX Two Math" font-size="14.00" text-anchor="middle" x="89.83" y="-117.3"> h: f ⟼ Min { r_i | f_i ≽ f}</text>
<text font-family="STIX Two Math" font-size="14.00" text-anchor="middle" x="89.83" y="-99.8"> h*: r ⟼ Max { f_i | r_i ≼ f}</text>
</g>
<!-- node1&#45;&gt;node2 -->
<g class="edge" id="edge1">
<title>node1-&gt;node2</title>
<path d="M89.83,-203.13C89.83,-188.5 89.83,-167.27 89.83,-150.03" fill="none" stroke="black"></path>
<text font-family="STIX Two Math" font-size="14.00" text-anchor="middle" x="304.85" y="-174.3">PosetProduct(7: R[m/s],R[m/s²],R[m/s²],R[person/car],R[m],R[g],R[W])</text>
</g>
<!-- node3 -->
<g class="node" id="node3">
<title>node3</title>
</g>
<!-- node2&#45;&gt;node3 -->
<g class="edge" id="edge2">
<title>node2-&gt;node3</title>
<path d="M89.83,-89.63C89.83,-72.26 89.83,-50.81 89.83,-36.13" fill="none" stroke="black"></path>
<text font-family="STIX Two Math" font-size="14.00" text-anchor="middle" x="232.98" y="-60.3">PosetProduct(4: R[CHF],R[CHF/m],R[g/m],R[])</text>
</g>
</g>
</svg>