<?xml version="1.0" encoding="UTF-8" standalone="no"?>
<!DOCTYPE svg PUBLIC "-//W3C//DTD SVG 1.1//EN" "http://www.w3.org/Graphics/SVG/1.1/DTD/svg11.dtd">

<!-- Generated by graphviz version 2.43.0 (0)
 -->
<!-- Title: G Pages: 1 -->
<svg height="325pt" viewbox="0.00 0.00 460.26 324.50" width="460pt" xmlns="http://www.w3.org/2000/svg" xmlns:xlink="http://www.w3.org/1999/xlink">
<g class="graph" id="graph0" transform="scale(1 1) rotate(0) translate(4 320.5)">
<title>G</title>
<polygon fill="white" points="-4,4 -4,-320.5 456.26,-320.5 456.26,4 -4,4" stroke="transparent"></polygon>
<!-- node1 -->
<g class="node" id="node1">
<title>node1</title>
<polygon fill="gray" points="118.09,-192 61.57,-192 61.57,-149 118.09,-149 118.09,-192" stroke="black"></polygon>
<text font-family="STIX Two Math" font-size="14.00" text-anchor="middle" x="89.83" y="-176.8">labeler</text>
<text font-family="STIX Two Math" font-size="14.00" text-anchor="middle" x="89.83" y="-159.3">()</text>
</g>
<!-- node2 -->
<g class="node" id="node2">
<title>node2</title>
<path d="M167.49,-60.25C167.49,-60.25 12.17,-60.25 12.17,-60.25 6.17,-60.25 0.17,-54.25 0.17,-48.25 0.17,-48.25 0.17,-12.25 0.17,-12.25 0.17,-6.25 6.17,-0.25 12.17,-0.25 12.17,-0.25 167.49,-0.25 167.49,-0.25 173.49,-0.25 179.49,-6.25 179.49,-12.25 179.49,-12.25 179.49,-48.25 179.49,-48.25 179.49,-54.25 173.49,-60.25 167.49,-60.25" fill="none" stroke="black"></path>
<text font-family="STIX Two Math" font-size="14.00" text-anchor="middle" x="89.83" y="-45.3">CatalogueDP</text>
<text font-family="STIX Two Math" font-size="14.00" text-anchor="middle" x="89.83" y="-27.8"> h: f ⟼ Min { r_i | f_i ≽ f}</text>
<text font-family="STIX Two Math" font-size="14.00" text-anchor="middle" x="89.83" y="-10.3"> h*: r ⟼ Max { f_i | r_i ≼ f}</text>
</g>
<!-- node1&#45;&gt;node2 -->
<g class="edge" id="edge1">
<title>node1-&gt;node2</title>
<path d="M89.83,-148.8C89.83,-125.3 89.83,-86.79 89.83,-60.29" fill="none" stroke="black"></path>
<text font-family="STIX Two Math" font-size="14.00" text-anchor="middle" x="271.05" y="-119.8">R[m/s]×R[m/s²]×R[m/s²]×R[person/car]×R[m]×R[g]×R[W]</text>
<text font-family="STIX Two Math" font-size="14.00" text-anchor="middle" x="271.05" y="-102.3">↓</text>
<text font-family="STIX Two Math" font-size="14.00" text-anchor="middle" x="271.05" y="-84.8">R[CHF]×R[CHF/m]×R[g/m]×R[]</text>
</g>
<!-- node3 -->
<g class="node" id="node3">
<title>node3</title>
</g>
<!-- node3&#45;&gt;node1 -->
<g class="edge" id="edge2">
<title>node3-&gt;node1</title>
<path d="M89.83,-280.24C89.83,-257.33 89.83,-216.89 89.83,-192.31" fill="none" stroke="black"></path>
<text font-family="STIX Two Math" font-size="14.00" text-anchor="middle" x="271.05" y="-251.3">R[m/s]×R[m/s²]×R[m/s²]×R[person/car]×R[m]×R[g]×R[W]</text>
<text font-family="STIX Two Math" font-size="14.00" text-anchor="middle" x="271.05" y="-233.8">↓</text>
<text font-family="STIX Two Math" font-size="14.00" text-anchor="middle" x="271.05" y="-216.3">R[CHF]×R[CHF/m]×R[g/m]×R[]</text>
</g>
</g>
</svg>