<?xml version="1.0" encoding="UTF-8" standalone="no"?>
<!DOCTYPE svg PUBLIC "-//W3C//DTD SVG 1.1//EN" "http://www.w3.org/Graphics/SVG/1.1/DTD/svg11.dtd">

<!-- Generated by graphviz version 2.43.0 (0)
 -->
<!-- Title: G Pages: 1 -->
<svg height="44pt" viewbox="0.00 0.00 152.00 44.00" width="152pt" xmlns="http://www.w3.org/2000/svg" xmlns:xlink="http://www.w3.org/1999/xlink">
<g class="graph" id="graph0" transform="scale(1 1) rotate(0) translate(4 40)">
<title>G</title>
<polygon fill="white" points="-4,4 -4,-40 148,-40 148,4 -4,4" stroke="transparent"></polygon>
<!-- node1 -->
<g class="node" id="node1">
<title>node1</title>
<path d="M132,-36C132,-36 102,-36 102,-36 96,-36 90,-30 90,-24 90,-24 90,-12 90,-12 90,-6 96,0 102,0 102,0 132,0 132,0 138,0 144,-6 144,-12 144,-12 144,-24 144,-24 144,-30 138,-36 132,-36" fill="none" stroke="black"></path>
</g>
<!-- node2 -->
<g class="node" id="node2">
<title>node2</title>
</g>
<!-- node2&#45;&gt;node1 -->
<g class="edge" id="edge1">
<title>node2-&gt;node1</title>
<path d="M54.4,-18C65.64,-18 78.72,-18 89.92,-18" fill="none" stroke="black"></path>
</g>
</g>
</svg>