<?xml version="1.0" encoding="UTF-8" standalone="no"?>
<!DOCTYPE svg PUBLIC "-//W3C//DTD SVG 1.1//EN" "http://www.w3.org/Graphics/SVG/1.1/DTD/svg11.dtd">

<!-- Generated by graphviz version 2.43.0 (0)
 -->
<!-- Title: G Pages: 1 -->
<svg height="91pt" viewbox="0.00 0.00 640.09 90.75" width="640pt" xmlns="http://www.w3.org/2000/svg" xmlns:xlink="http://www.w3.org/1999/xlink">
<g class="graph" id="graph0" transform="scale(1 1) rotate(0) translate(4 86.75)">
<title>G</title>
<polygon fill="white" points="-4,4 -4,-86.75 636.09,-86.75 636.09,4 -4,4" stroke="transparent"></polygon>
<!-- node1 -->
<g class="node" id="node1">
<title>node1</title>
<path d="M619.92,-60.25C619.92,-60.25 464.6,-60.25 464.6,-60.25 458.6,-60.25 452.6,-54.25 452.6,-48.25 452.6,-48.25 452.6,-12.25 452.6,-12.25 452.6,-6.25 458.6,-0.25 464.6,-0.25 464.6,-0.25 619.92,-0.25 619.92,-0.25 625.92,-0.25 631.92,-6.25 631.92,-12.25 631.92,-12.25 631.92,-48.25 631.92,-48.25 631.92,-54.25 625.92,-60.25 619.92,-60.25" fill="none" stroke="black"></path>
<text font-family="STIX Two Math" font-size="14.00" text-anchor="middle" x="542.26" y="-45.3">CatalogueDP</text>
<text font-family="STIX Two Math" font-size="14.00" text-anchor="middle" x="542.26" y="-27.8"> h: f ⟼ Min { r_i | f_i ≽ f}</text>
<text font-family="STIX Two Math" font-size="14.00" text-anchor="middle" x="542.26" y="-10.3"> h*: r ⟼ Max { f_i | r_i ≼ f}</text>
</g>
<!-- node2 -->
<g class="node" id="node2">
<title>node2</title>
</g>
<!-- node2&#45;&gt;node1 -->
<g class="edge" id="edge1">
<title>node2-&gt;node1</title>
<path d="M54.16,-30.25C126.68,-30.25 332.81,-30.25 452.4,-30.25" fill="none" stroke="black"></path>
<text font-family="STIX Two Math" font-size="14.00" text-anchor="middle" x="253.22" y="-71.55">R[m/s]×R[m/s²]×R[m/s²]×R[person/car]×R[m]×R[g]×R[W]</text>
<text font-family="STIX Two Math" font-size="14.00" text-anchor="middle" x="253.22" y="-54.05">↓</text>
<text font-family="STIX Two Math" font-size="14.00" text-anchor="middle" x="253.22" y="-36.55">R[CHF]×R[CHF/m]×R[g/m]×R[]</text>
</g>
</g>
</svg>