<?xml version="1.0" encoding="UTF-8" standalone="no"?>
<!DOCTYPE svg PUBLIC "-//W3C//DTD SVG 1.1//EN" "http://www.w3.org/Graphics/SVG/1.1/DTD/svg11.dtd">

<!-- Generated by graphviz version 2.43.0 (0)
 -->
<!-- Title: G Pages: 1 -->
<svg height="193pt" viewbox="0.00 0.00 460.26 193.00" width="460pt" xmlns="http://www.w3.org/2000/svg" xmlns:xlink="http://www.w3.org/1999/xlink">
<g class="graph" id="graph0" transform="scale(1 1) rotate(0) translate(4 189)">
<title>G</title>
<polygon fill="white" points="-4,4 -4,-189 456.26,-189 456.26,4 -4,4" stroke="transparent"></polygon>
<!-- node1 -->
<g class="node" id="node1">
<title>node1</title>
<path d="M167.49,-60.25C167.49,-60.25 12.17,-60.25 12.17,-60.25 6.17,-60.25 0.17,-54.25 0.17,-48.25 0.17,-48.25 0.17,-12.25 0.17,-12.25 0.17,-6.25 6.17,-0.25 12.17,-0.25 12.17,-0.25 167.49,-0.25 167.49,-0.25 173.49,-0.25 179.49,-6.25 179.49,-12.25 179.49,-12.25 179.49,-48.25 179.49,-48.25 179.49,-54.25 173.49,-60.25 167.49,-60.25" fill="none" stroke="black"></path>
<text font-family="STIX Two Math" font-size="14.00" text-anchor="middle" x="89.83" y="-45.3">CatalogueDP</text>
<text font-family="STIX Two Math" font-size="14.00" text-anchor="middle" x="89.83" y="-27.8"> h: f ⟼ Min { r_i | f_i ≽ f}</text>
<text font-family="STIX Two Math" font-size="14.00" text-anchor="middle" x="89.83" y="-10.3"> h*: r ⟼ Max { f_i | r_i ≼ f}</text>
</g>
<!-- node2 -->
<g class="node" id="node2">
<title>node2</title>
</g>
<!-- node2&#45;&gt;node1 -->
<g class="edge" id="edge1">
<title>node2-&gt;node1</title>
<path d="M89.83,-148.93C89.83,-126.7 89.83,-87.47 89.83,-60.46" fill="none" stroke="black"></path>
<text font-family="STIX Two Math" font-size="14.00" text-anchor="middle" x="271.05" y="-119.8">R[m/s]×R[m/s²]×R[m/s²]×R[person/car]×R[m]×R[g]×R[W]</text>
<text font-family="STIX Two Math" font-size="14.00" text-anchor="middle" x="271.05" y="-102.3">↓</text>
<text font-family="STIX Two Math" font-size="14.00" text-anchor="middle" x="271.05" y="-84.8">R[CHF]×R[CHF/m]×R[g/m]×R[]</text>
</g>
</g>
</svg>